<svg width="24" height="24" viewBox="0 0 24 24" fill="none" xmlns="http://www.w3.org/2000/svg">
<path d="M17 7H9C8.71667 7 8.47934 6.904 8.288 6.712C8.09667 6.52 8.00067 6.28267 8 6C7.99934 5.71733 8.09534 5.48 8.288 5.288C8.48067 5.096 8.718 5 9 5H18C18.2833 5 18.521 5.096 18.713 5.288C18.905 5.48 19.0007 5.71733 19 6V15C19 15.2833 18.904 15.521 18.712 15.713C18.52 15.905 18.2827 16.0007 18 16C17.7173 15.9993 17.48 15.9033 17.288 15.712C17.096 15.5207 17 15.2833 17 15V7ZM12 12H4C3.71667 12 3.47934 11.904 3.288 11.712C3.09667 11.52 3.00067 11.2827 3 11C2.99934 10.7173 3.09534 10.48 3.288 10.288C3.48067 10.096 3.718 10 4 10H13C13.2833 10 13.521 10.096 13.713 10.288C13.905 10.48 14.0007 10.7173 14 11V20C14 20.2833 13.904 20.521 13.712 20.713C13.52 20.905 13.2827 21.0007 13 21C12.7173 20.9993 12.48 20.9033 12.288 20.712C12.096 20.5207 12 20.2833 12 20V12Z" fill="white"/>
</svg>
