<svg width="40" height="41" viewBox="0 0 40 41" fill="none" xmlns="http://www.w3.org/2000/svg">
<g clip-path="url(#clip0_2519_3328)">
<rect y="0.5" width="40" height="40" fill="white"/>
<path d="M20.1435 7.03906C12.6526 7.03906 6.57825 13.1123 6.57825 20.6043C6.57825 26.5979 10.4651 31.6827 15.855 33.4765C16.533 33.602 16.7819 33.1822 16.7819 32.8239C16.7819 32.5004 16.7692 31.4318 16.7635 30.2983C12.9895 31.1189 12.1932 28.6977 12.1932 28.6977C11.5761 27.1298 10.687 26.7129 10.687 26.7129C9.45631 25.871 10.7798 25.8882 10.7798 25.8882C12.142 25.9839 12.8593 27.2862 12.8593 27.2862C14.0692 29.36 16.0327 28.7604 16.8068 28.4139C16.9285 27.537 17.2801 26.9387 17.668 26.5999C14.6551 26.2568 11.4876 25.0937 11.4876 19.8959C11.4876 18.4149 12.0175 17.2047 12.8854 16.2548C12.7445 15.9131 12.2802 14.5334 13.0168 12.6649C13.0168 12.6649 14.1559 12.3003 16.7482 14.0554C17.8302 13.7547 18.9907 13.6041 20.1435 13.599C21.2964 13.6041 22.4577 13.7547 23.5418 14.0554C26.131 12.3003 27.2686 12.6649 27.2686 12.6649C28.0069 14.5334 27.5424 15.9131 27.4016 16.2548C28.2713 17.2047 28.7976 18.4148 28.7976 19.8959C28.7976 25.106 25.6242 26.2533 22.6036 26.5891C23.0901 27.0101 23.5236 27.8357 23.5236 29.1012C23.5236 30.9162 23.5079 32.377 23.5079 32.8239C23.5079 33.1849 23.7521 33.6079 24.4398 33.4747C29.8267 31.6789 33.7087 26.5959 33.7087 20.6043C33.7087 13.1123 27.6352 7.03906 20.1435 7.03906Z" fill="url(#paint0_linear_2519_3328)"/>
<path d="M11.6589 26.3628C11.6291 26.4302 11.523 26.4504 11.4265 26.4042C11.328 26.36 11.2727 26.268 11.3046 26.2004C11.3339 26.131 11.4401 26.1117 11.5383 26.1583C11.6369 26.2024 11.6931 26.2952 11.6589 26.3628ZM12.3262 26.9582C12.2615 27.0182 12.135 26.9903 12.0492 26.8955C11.9604 26.801 11.9438 26.6746 12.0095 26.6136C12.0762 26.5537 12.1989 26.5817 12.2878 26.6764C12.3765 26.772 12.3938 26.8977 12.3261 26.9583M12.784 27.72C12.7008 27.7777 12.5648 27.7236 12.4809 27.6029C12.3978 27.4824 12.3978 27.3377 12.4827 27.2797C12.567 27.2217 12.7008 27.2739 12.7859 27.3936C12.8689 27.5162 12.8689 27.6609 12.7839 27.7201M13.5581 28.6022C13.4837 28.6842 13.3254 28.6623 13.2095 28.5503C13.0909 28.441 13.0578 28.2857 13.1324 28.2037C13.2076 28.1216 13.3669 28.1447 13.4837 28.2556C13.6015 28.3648 13.6374 28.5212 13.5581 28.6022ZM14.5586 28.9001C14.5259 29.0063 14.3734 29.0546 14.2197 29.0095C14.0663 28.963 13.9659 28.8385 13.9968 28.7312C14.0288 28.6243 14.182 28.5739 14.3368 28.6223C14.49 28.6685 14.5905 28.792 14.5586 28.9001ZM15.6974 29.0264C15.7012 29.1383 15.5709 29.2311 15.4096 29.2331C15.2474 29.2367 15.1162 29.1461 15.1145 29.0361C15.1145 28.9231 15.2418 28.8312 15.404 28.8285C15.5652 28.8253 15.6974 28.9152 15.6974 29.0264ZM16.816 28.9836C16.8353 29.0927 16.7232 29.2048 16.5631 29.2346C16.4056 29.2634 16.2599 29.196 16.2398 29.0878C16.2202 28.9759 16.3344 28.8639 16.4916 28.8348C16.652 28.8069 16.7955 28.8726 16.816 28.9836Z" fill="url(#paint1_linear_2519_3328)"/>
</g>
<defs>
<linearGradient id="paint0_linear_2519_3328" x1="18.4239" y1="33.4998" x2="-1.42221" y2="11.2011" gradientUnits="userSpaceOnUse">
<stop stop-color="#FD0000"/>
<stop offset="1" stop-color="#FF9292"/>
</linearGradient>
<linearGradient id="paint1_linear_2519_3328" x1="13.7068" y1="29.2413" x2="11.7989" y2="25.5267" gradientUnits="userSpaceOnUse">
<stop stop-color="#FD0000"/>
<stop offset="1" stop-color="#FF9292"/>
</linearGradient>
<clipPath id="clip0_2519_3328">
<rect y="0.5" width="40" height="40" rx="8" fill="white"/>
</clipPath>
</defs>
</svg>
