<svg width="40" height="41" viewBox="0 0 40 41" fill="none" xmlns="http://www.w3.org/2000/svg">
<rect y="0.5" width="40" height="40" rx="8" fill="white"/>
<path d="M28 21.2444V26.7601H24.7713V21.5807C24.7713 20.3027 24.3004 19.4283 23.157 19.4283C22.2825 19.4283 21.7444 20.0336 21.5426 20.5718C21.4753 20.7735 21.4081 21.0426 21.4081 21.3789V26.7601H18.1794C18.1794 26.7601 18.2466 18.0157 18.1794 17.1413H21.4081V18.4865C21.8117 17.8139 22.6188 16.8722 24.3004 16.8722C26.3856 16.8722 28 18.2848 28 21.2444ZM14.8161 12.5C13.7399 12.5 13 13.2399 13 14.1816C13 15.1233 13.6726 15.8632 14.7489 15.8632C15.8924 15.8632 16.565 15.1233 16.565 14.1816C16.6323 13.1726 15.9596 12.5 14.8161 12.5ZM13.2018 26.7601H16.4305V17.1413H13.2018V26.7601Z" fill="url(#paint0_linear_346_5192)"/>
<defs>
<linearGradient id="paint0_linear_346_5192" x1="28.2268" y1="28.5" x2="7.26709" y2="23.2207" gradientUnits="userSpaceOnUse">
<stop stop-color="#FD0000"/>
<stop offset="1" stop-color="#FF9292"/>
</linearGradient>
</defs>
</svg>
