<svg width="35" height="32" viewBox="0 0 35 32" fill="none" xmlns="http://www.w3.org/2000/svg">
<g clip-path="url(#clip0_5247_2904)">
<path fill-rule="evenodd" clip-rule="evenodd" d="M19.1875 21.4133C18.7819 21.7879 18.2322 21.9982 17.659 21.9982C17.0858 21.9982 16.536 21.7879 16.1305 21.4133L7.97169 13.872C7.56611 13.4968 7.33834 12.988 7.33847 12.4575C7.33861 11.9271 7.56664 11.4184 7.97241 11.0433C8.37818 10.6683 8.92844 10.4577 9.50215 10.4578C10.0759 10.458 10.626 10.6688 11.0316 11.044L17.659 17.172L24.2864 11.044C24.6941 10.6795 25.2404 10.4777 25.8076 10.482C26.3747 10.4863 26.9173 10.6964 27.3185 11.067C27.7198 11.4377 27.9475 11.9392 27.9527 12.4636C27.9579 12.988 27.7401 13.4933 27.3463 13.8707L19.1889 21.4147L19.1875 21.4133Z" fill="#2B2B2B"/>
</g>
<defs>
<clipPath id="clip0_5247_2904">
<rect width="34.6078" height="32" fill="white" transform="translate(0.355072)"/>
</clipPath>
</defs>
</svg>
