<svg width="48" height="44" viewBox="0 0 48 44" fill="none" xmlns="http://www.w3.org/2000/svg">
<path d="M8.1265 7.33333L20.9786 22.1852C21.5412 22.8357 21.8475 23.6439 21.847 24.4768V36.6667L25.8125 33.9167V24.475C25.8126 23.6427 26.1188 22.8352 26.681 22.1852L39.5331 7.33333H8.1265ZM8.1265 3.66666H39.5331C40.2801 3.66675 41.012 3.86196 41.6443 4.2298C42.2766 4.59764 42.7837 5.12316 43.1071 5.74582C43.4306 6.36849 43.5572 7.06296 43.4725 7.74926C43.3877 8.43556 43.095 9.08577 42.6281 9.625L29.778 24.475V33.9167C29.778 34.4859 29.6347 35.0473 29.3594 35.5564C29.084 36.0656 28.6843 36.5085 28.1918 36.85L24.2263 39.6C23.6372 40.0086 22.9366 40.2574 22.2032 40.3185C21.4697 40.3797 20.7323 40.2508 20.0736 39.9462C19.4149 39.6417 18.861 39.1736 18.4738 38.5943C18.0866 38.0151 17.8816 37.3476 17.8816 36.6667V24.475L5.03144 9.625C4.56454 9.08577 4.27186 8.43556 4.18711 7.74926C4.10237 7.06296 4.22901 6.36849 4.55245 5.74582C4.8759 5.12316 5.38298 4.59764 6.0153 4.2298C6.64761 3.86196 7.37945 3.66675 8.1265 3.66666Z" fill="#2B2B2B"/>
</svg>
