<svg width="25" height="24" viewBox="0 0 25 24" fill="none" xmlns="http://www.w3.org/2000/svg">
<path d="M18.965 19.1208L18.965 4.87922C18.9658 4.31697 18.8074 3.766 18.5081 3.29006C18.2087 2.81412 17.7807 2.43268 17.2736 2.18989C16.6719 1.90568 16.0025 1.79622 15.3416 1.87397C14.6807 1.95172 14.0549 2.21356 13.5356 2.62966L4.90949 9.75044C4.58706 10.0299 4.32847 10.3754 4.15124 10.7635C3.97402 11.1516 3.88229 11.5733 3.88229 12C3.88229 12.4267 3.97402 12.8484 4.15124 13.2365C4.32847 13.6246 4.58706 13.9701 4.90949 14.2496L13.5356 21.3703C14.0549 21.7864 14.6807 22.0483 15.3416 22.126C16.0025 22.2038 16.6719 22.0943 17.2736 21.8101C17.7807 21.5673 18.2087 21.1859 18.5081 20.7099C18.8074 20.234 18.9658 19.683 18.965 19.1208ZM15.5822 5.23441L15.5822 18.5965L7.42968 12L15.5822 5.23441Z" fill="white"/>
</svg>
