<svg width="25" height="24" viewBox="0 0 25 24" fill="none" xmlns="http://www.w3.org/2000/svg">
<path d="M6.79952 19.1208L6.79952 4.87922C6.79871 4.31697 6.95713 3.766 7.25647 3.29006C7.5558 2.81412 7.9838 2.43268 8.49092 2.18989C9.09262 1.90568 9.76206 1.79622 10.4229 1.87397C11.0838 1.95172 11.7096 2.21356 12.2289 2.62966L20.855 9.75044C21.1775 10.0299 21.4361 10.3754 21.6133 10.7635C21.7905 11.1516 21.8822 11.5733 21.8822 12C21.8822 12.4267 21.7905 12.8484 21.6133 13.2365C21.4361 13.6246 21.1775 13.9701 20.855 14.2496L12.2289 21.3703C11.7096 21.7864 11.0838 22.0483 10.4229 22.126C9.76206 22.2038 9.09262 22.0943 8.49092 21.8101C7.9838 21.5673 7.5558 21.1859 7.25647 20.7099C6.95713 20.234 6.79871 19.683 6.79952 19.1208ZM10.1823 5.23441L10.1823 18.5965L18.3349 12L10.1823 5.23441Z" fill="white"/>
</svg>
