<svg width="100" height="100" viewBox="0 0 100 100" fill="none" xmlns="http://www.w3.org/2000/svg">
<path d="M96.529 29.291C95.9031 29.2786 95.2846 29.4287 94.7343 29.7264C94.184 30.0241 93.7207 30.4593 93.3898 30.9893C93.0589 31.5193 92.8718 32.126 92.8468 32.7499C92.8217 33.3737 92.9597 33.9933 93.247 34.548L77.422 50.1708C78.9077 46.6406 79.6702 42.8498 79.6648 39.0214C79.6648 38.7323 79.6648 38.4459 79.6492 38.1595L77.4168 40.3623C77.099 46.7542 74.4845 52.8185 70.0513 57.4458L68.8868 58.5941C67.1063 60.2436 65.1099 61.645 62.9521 62.7601L59.101 66.7075C59.9312 66.454 60.7441 66.1659 61.5396 65.843L61.597 65.8196C64.8949 64.4719 67.9156 62.53 70.5082 60.0912L70.5291 60.073C70.8772 59.7501 71.2132 59.4186 71.5369 59.0784L71.5552 59.0601L94.8058 36.1103C95.2956 36.3621 95.8371 36.4976 96.388 36.5061C97.3348 36.505 98.2435 36.1336 98.9187 35.4718C99.594 34.8099 99.982 33.9103 99.9994 32.9663C100.017 32.0222 99.6623 31.109 99.012 30.4228C98.3616 29.7365 97.4673 29.3321 96.5212 29.2962L96.529 29.291ZM96.435 34.2955C96.1573 34.2903 95.8873 34.2031 95.6592 34.0449C95.4312 33.8867 95.2553 33.6646 95.1538 33.4067C95.0523 33.1488 95.0298 32.8667 95.089 32.5961C95.1483 32.3254 95.2867 32.0783 95.4867 31.8861C95.6868 31.6939 95.9395 31.5651 96.2129 31.5161C96.4863 31.4671 96.7682 31.5001 97.0228 31.6108C97.2775 31.7216 97.4935 31.9051 97.6435 32.1382C97.7936 32.3714 97.8709 32.6437 97.8658 32.9207C97.8583 33.292 97.7034 33.6452 97.4353 33.9029C97.1671 34.1606 96.8074 34.3018 96.435 34.2955Z" fill="black"/>
<path d="M76.3645 31.4912L78.1322 29.7466C76.8908 26.1155 74.9411 22.7653 72.3954 19.8891C69.8496 17.013 66.7582 14.6678 63.2993 12.9886L67.3855 8.82258C68.157 9.198 69.0377 9.28634 69.8687 9.07172C70.6998 8.85709 71.4267 8.35359 71.9186 7.65189C72.4104 6.9502 72.6349 6.09642 72.5515 5.24433C72.4682 4.39224 72.0825 3.59783 71.4639 3.00417C70.8453 2.41051 70.0345 2.05662 69.1775 2.00623C68.3205 1.95584 67.4736 2.21226 66.7894 2.72932C66.1051 3.24637 65.6285 3.99007 65.4453 4.82649C65.2621 5.66291 65.3844 6.53708 65.7902 7.29155L61.1322 12.0435C58.5855 11.0535 55.9102 10.431 53.1871 10.1948L51.1349 12.296C53.9634 12.3448 56.7661 12.8423 59.4377 13.7698L53.9051 19.3992H56.9991L61.6623 14.6421C65.1814 16.2345 68.3158 18.5633 70.8526 21.4706C73.3894 24.3778 75.2693 27.7954 76.3645 31.4912ZM68.9782 4.16961C69.256 4.16961 69.5276 4.25176 69.7586 4.40569C69.9896 4.55961 70.1696 4.7784 70.2759 5.03437C70.3822 5.29034 70.4101 5.572 70.3559 5.84373C70.3017 6.11547 70.1679 6.36508 69.9714 6.56099C69.775 6.7569 69.5247 6.89032 69.2522 6.94437C68.9797 6.99842 68.6973 6.97068 68.4406 6.86465C68.1839 6.75863 67.9645 6.57908 67.8102 6.34871C67.6558 6.11834 67.5735 5.84751 67.5735 5.57045C67.5735 5.19892 67.7215 4.84261 67.9849 4.5799C68.2483 4.31719 68.6056 4.16961 68.9782 4.16961Z" fill="black"/>
<path d="M31.4039 20.4016L31.4953 20.3105L32.1141 19.7012C34.008 17.8969 36.1549 16.3769 38.4875 15.1888L42.3125 11.2883C37.8882 12.6126 33.8467 14.9751 30.5266 18.178L30.0044 18.6857L5.27608 43.091C4.50818 42.6976 3.62463 42.5908 2.7847 42.7897C1.94476 42.9886 1.20371 43.4802 0.695133 44.1759C0.186555 44.8715 -0.0560888 45.7255 0.0109363 46.5838C0.0779613 47.4422 0.450243 48.2484 1.06068 48.8571C1.67112 49.4659 2.47955 49.8372 3.34023 49.904C4.20092 49.9708 5.05724 49.7289 5.75482 49.2217C6.4524 48.7145 6.94535 47.9755 7.14481 47.1379C7.34427 46.3002 7.23711 45.4191 6.84266 44.6533L23.8635 27.8458C22.374 31.3833 21.6088 35.182 21.6128 39.0187C21.6128 39.2791 21.6128 39.5395 21.6128 39.7998L23.8504 37.5892C24.1966 31.1365 26.8808 25.0287 31.4039 20.4016ZM3.59463 47.6997C3.31677 47.6945 3.0467 47.6072 2.8186 47.4489C2.5905 47.2906 2.41461 47.0684 2.3132 46.8103C2.21178 46.5523 2.18941 46.27 2.24889 45.9993C2.30837 45.7286 2.44704 45.4815 2.64735 45.2894C2.84766 45.0973 3.10061 44.9688 3.3742 44.9201C3.64779 44.8714 3.92971 44.9047 4.1843 45.0159C4.43889 45.127 4.6547 45.3109 4.80443 45.5444C4.95415 45.7779 5.03107 46.0504 5.02543 46.3275C5.02204 46.5114 4.98232 46.6928 4.90854 46.8613C4.83475 47.0298 4.72836 47.1822 4.59546 47.3096C4.46255 47.4371 4.30574 47.5371 4.13401 47.6041C3.96227 47.671 3.77898 47.7035 3.59463 47.6997Z" fill="black"/>
<path d="M41.6337 64.2052L46.1898 59.5418L44.6049 58.0029L39.4248 63.3043C35.9568 61.7039 32.8699 59.3862 30.3688 56.505C27.8678 53.6239 26.0098 50.2451 24.9183 46.5931L23.1533 48.3351C25.6437 55.5921 30.907 61.5747 37.7982 64.9811L32.7512 70.147C31.9765 69.7683 31.0915 69.678 30.2559 69.8925C29.4204 70.107 28.6891 70.6122 28.1941 71.317C27.6991 72.0218 27.4729 72.8798 27.5563 73.7362C27.6397 74.5926 28.0272 75.3912 28.6489 75.9878C29.2707 76.5844 30.0857 76.9399 30.9471 76.9901C31.8084 77.0403 32.6594 76.7819 33.3466 76.2616C34.0338 75.7412 34.5119 74.9932 34.6948 74.1523C34.8776 73.3113 34.7532 72.4329 34.3439 71.6755L39.9496 65.9471C42.5652 66.9821 45.3184 67.6303 48.1219 67.8713L50.1741 65.7701C47.2606 65.7179 44.3755 65.1892 41.6337 64.2052ZM31.1611 74.7766C30.8833 74.7766 30.6117 74.6944 30.3807 74.5405C30.1497 74.3866 29.9697 74.1678 29.8634 73.9118C29.757 73.6558 29.7292 73.3742 29.7834 73.1024C29.8376 72.8307 29.9714 72.5811 30.1679 72.3852C30.3643 72.1893 30.6146 72.0559 30.8871 72.0018C31.1596 71.9478 31.442 71.9755 31.6987 72.0815C31.9554 72.1875 32.1747 72.3671 32.3291 72.5975C32.4834 72.8278 32.5658 73.0987 32.5658 73.3757C32.5651 73.747 32.4169 74.1029 32.1536 74.3655C31.8903 74.6281 31.5335 74.7759 31.1611 74.7766Z" fill="black"/>
<path d="M25.4457 42.8541L37.4247 51.7538L48.5788 60.0365L48.7328 60.1511H48.9025L49.0539 59.8126L58.3933 38.9432L58.4403 38.8416L58.5422 38.6125L69.9886 13.0225L25.4457 42.8541ZM58.2811 38.3599L48.7197 59.711L37.6441 51.483L26.0331 42.8593L69.2053 13.965L58.2811 38.3599Z" fill="#350003"/>
<path d="M69.2001 13.9651L69.1975 13.9729L37.6441 51.4909L26.0332 42.8672L69.2001 13.9651Z" fill="url(#paint0_linear_2609_3363)"/>
<path d="M69.1976 13.9729L58.2812 38.36L48.7198 59.7189L37.6442 51.4909L69.1976 13.9729Z" fill="url(#paint1_linear_2609_3363)"/>
<path style="mix-blend-mode:screen" d="M65.9364 17.8265C64.7824 19.2612 63.6127 20.6907 62.4508 22.1046L58.9365 26.3592C56.5866 29.1947 54.2367 32.0094 51.8686 34.8345C49.5005 37.6596 47.1245 40.4613 44.7381 43.2604L41.1532 47.4551C39.947 48.8455 38.7512 50.2437 37.5397 51.6211C38.6937 50.189 39.8634 48.77 41.0253 47.3431L44.537 43.0885C46.8869 40.253 49.2498 37.4383 51.6075 34.6132C53.9652 31.7881 56.349 28.9864 58.738 26.1873L62.3229 21.9926C63.5265 20.6074 64.7223 19.2118 65.9364 17.8265Z" fill="url(#paint2_linear_2609_3363)"/>
<path d="M58.5395 38.6126L58.2784 38.3522L48.7171 59.7032L48.5735 60.0209L48.7275 60.1355H70.0146L74.905 54.5894L58.5395 38.6126ZM69.8606 59.8126H49.0487L58.3907 38.9432L58.61 39.1567L74.4272 54.6206L69.8606 59.8126Z" fill="#4C0D27"/>
<path d="M74.4377 54.6206L69.8581 59.8126H69.8451L58.6101 39.1567L74.4377 54.6206Z" fill="url(#paint3_linear_2609_3363)"/>
<path d="M69.8451 59.8126H49.0514L58.3908 38.9432L58.6101 39.1567L69.8451 59.8126Z" fill="url(#paint4_linear_2609_3363)"/>
<path style="mix-blend-mode:screen" d="M59.3256 40.4299C60.1785 41.8672 61.0131 43.3158 61.8295 44.7757C62.6458 46.2355 63.4509 47.6989 64.2446 49.1657C65.0279 50.6368 65.8268 52.1079 66.5945 53.5921C67.3621 55.0763 69.114 58.3128 69.8529 59.8126C68.9992 58.3753 67.1767 55.1752 66.3595 53.7171C65.5422 52.259 64.7381 50.7956 63.9417 49.3271C63.1454 47.8585 62.3595 46.3822 61.5919 44.9006C60.8243 43.4191 60.0671 41.9297 59.3256 40.4299Z" fill="url(#paint5_linear_2609_3363)"/>
<path d="M58.3908 38.9432L49.5684 59.8126H49.0514L58.3908 38.9432Z" fill="url(#paint6_linear_2609_3363)"/>
<path d="M2.19391 95.8567H0V85.1899H7.2669V86.9988H2.19391V89.702H6.96349V91.481H2.19391V95.8567Z" fill="#FF0000"/>
<path d="M11.8382 87.6206H12.1433C12.9808 87.6178 13.8172 87.684 14.6439 87.8184V89.2781H12.1733C12.0137 89.2665 11.8535 89.2881 11.7028 89.3417C11.5521 89.3952 11.4143 89.4794 11.298 89.589C11.0897 89.8249 10.9831 90.1331 11.0013 90.4469V95.8567H8.92908V90.3704C8.92908 88.5383 9.89877 87.6217 11.8382 87.6206Z" fill="#FF0000"/>
<path d="M17.5213 87.7419L19.6235 93.4543L21.7258 87.7402H23.823L19.7702 98.7129H17.6547L18.7983 95.8567H18.4166L15.4158 87.7419H17.5213Z" fill="#FF0000"/>
<path d="M34.7991 85.1899H36.993V95.8567H34.659L30.608 88.7295V95.8567H28.4141V85.1899H30.748L34.8007 92.3155L34.7991 85.1899Z" fill="#FF0000"/>
<path d="M46.2704 90.5382V92.5333H41.0457V93.0952C41.0457 93.5624 41.1524 93.8982 41.3658 94.106C41.5792 94.3138 41.9193 94.4186 42.3861 94.4186H45.9053V95.7702C44.8819 95.9241 43.8477 95.9952 42.8129 95.983H42.1727C40.0388 95.983 38.9724 95.0104 38.9735 93.0653V90.5382C38.9735 88.5931 40.0399 87.6205 42.1727 87.6205H43.0713C45.2051 87.6205 46.2715 88.5931 46.2704 90.5382ZM41.0457 90.4019V91.0669H44.1982V90.5349C44.1982 89.6338 43.777 89.1833 42.9346 89.1833H42.2944C41.4608 89.1855 41.0446 89.5917 41.0457 90.4019Z" fill="#FF0000"/>
<path d="M52.0602 94.3222H53.7973V95.7952C53.1756 95.9201 52.5427 95.9814 51.9085 95.9781H51.315C50.537 95.9781 49.9352 95.7625 49.5095 95.3314C49.0839 94.9002 48.8677 94.3001 48.861 93.5309V89.3995H47.474V87.7369H48.861V85.6405H50.9332V87.7369H53.7056V89.3995H50.9332V93.1967C50.9332 93.9471 51.3089 94.3222 52.0602 94.3222Z" fill="#FF0000"/>
<path d="M61.9795 87.7419L63.5482 93.2133L65.1336 87.7419H67.2358L64.6918 95.8567H62.4996L60.9992 90.5832L59.4905 95.8567H57.2866L54.7426 87.7419H56.8448L58.4285 93.2133L59.9989 87.7419H61.9795Z" fill="#FF0000"/>
<path d="M68.2262 93.0603V90.5382C68.2262 88.5931 69.2876 87.6205 71.4104 87.6205H72.7207C74.8535 87.6205 75.9199 88.5931 75.9199 90.5382V93.0603C75.9199 95.0054 74.8535 95.978 72.7207 95.978H71.4104C69.2887 95.978 68.2273 95.0054 68.2262 93.0603ZM73.8477 93.0004V90.6147C73.8477 90.1592 73.741 89.8222 73.5276 89.6039C73.3142 89.3855 72.9741 89.2747 72.5073 89.2714H71.6388C71.172 89.2714 70.8319 89.3822 70.6185 89.6039C70.4051 89.8256 70.2984 90.1625 70.2984 90.6147V93.0004C70.2984 93.456 70.4023 93.7885 70.6102 93.9979C70.818 94.2074 71.1609 94.3138 71.6388 94.3172H72.5023C72.9691 94.3172 73.3092 94.2108 73.5226 93.9979C73.736 93.7851 73.8443 93.4526 73.8477 93.0004Z" fill="#FF0000"/>
<path d="M80.6578 87.6206H80.9628C81.8004 87.6178 82.6368 87.684 83.4635 87.8184V89.2781H80.9928C80.8333 89.2665 80.6731 89.2881 80.5224 89.3417C80.3717 89.3952 80.2339 89.4794 80.1176 89.589C79.9093 89.8249 79.8027 90.1331 79.8209 90.4469V95.8567H77.7487V90.3704C77.7487 88.5383 78.7184 87.6217 80.6578 87.6206Z" fill="#FF0000"/>
<path d="M86.9811 93.6539V95.8567H84.9089V84.884H86.9811V90.8858L89.5568 87.7403H91.9941L89.13 91.2316L92.3892 95.8517H90.0286L87.8197 92.6613L86.9811 93.6539Z" fill="#FF0000"/>
<path d="M96.1752 90.8275L98.064 91.1467C98.7309 91.2576 99.221 91.4953 99.5344 91.86C99.8478 92.2246 100.003 92.7411 99.9995 93.4094V93.6688C99.9995 94.438 99.7911 95.0154 99.3744 95.4012C98.9576 95.7869 98.2719 95.9792 97.3172 95.978H96.3269C95.4338 95.9849 94.5417 95.9187 93.6595 95.7802V94.3521H97.0571C97.6361 94.3521 97.9257 94.1304 97.9257 93.6871V93.3828C97.9257 92.9872 97.6556 92.7444 97.1188 92.653L95.2283 92.3338C94.5481 92.223 94.0558 91.988 93.7512 91.6289C93.4467 91.2698 93.2944 90.7555 93.2944 90.086V89.9032C93.2944 89.165 93.5023 88.6003 93.9179 88.2091C94.3336 87.8178 95.0193 87.6227 95.9751 87.6238H96.7987C97.6862 87.6174 98.5727 87.6836 99.4494 87.8217V89.2498H96.2135C95.988 89.2352 95.7644 89.2999 95.5817 89.4327C95.5112 89.4889 95.4547 89.5606 95.4165 89.6423C95.3783 89.7239 95.3596 89.8131 95.3616 89.9032V90.101C95.3616 90.4945 95.6328 90.7367 96.1752 90.8275Z" fill="#FF0000"/>
<defs>
<linearGradient id="paint0_linear_2609_3363" x1="26.0332" y1="32.728" x2="69.2001" y2="32.728" gradientUnits="userSpaceOnUse">
<stop stop-color="#FF0000"/>
<stop offset="0.11" stop-color="#F90000"/>
<stop offset="0.27" stop-color="#E80000"/>
<stop offset="0.44" stop-color="#CC0000"/>
<stop offset="0.63" stop-color="#A50000"/>
<stop offset="0.83" stop-color="#730001"/>
<stop offset="1" stop-color="#450001"/>
</linearGradient>
<linearGradient id="paint1_linear_2609_3363" x1="43.0932" y1="55.7455" x2="69.2899" y2="13.9653" gradientUnits="userSpaceOnUse">
<stop stop-color="#FF0000"/>
<stop offset="0.11" stop-color="#F90000"/>
<stop offset="0.27" stop-color="#E80000"/>
<stop offset="0.44" stop-color="#CC0000"/>
<stop offset="0.63" stop-color="#A50000"/>
<stop offset="0.83" stop-color="#730001"/>
<stop offset="1" stop-color="#450001"/>
</linearGradient>
<linearGradient id="paint2_linear_2609_3363" x1="37.5397" y1="34.7277" x2="65.9364" y2="34.7277" gradientUnits="userSpaceOnUse">
<stop/>
<stop offset="1" stop-color="white" stop-opacity="0.5"/>
</linearGradient>
<linearGradient id="paint3_linear_2609_3363" x1="72.2654" y1="57.3729" x2="58.4194" y2="39.8644" gradientUnits="userSpaceOnUse">
<stop stop-color="#EF0000"/>
<stop offset="1" stop-color="#5D0F28"/>
</linearGradient>
<linearGradient id="paint4_linear_2609_3363" x1="59.4456" y1="59.7527" x2="58.9029" y2="39.2843" gradientUnits="userSpaceOnUse">
<stop stop-color="#FF0000"/>
<stop offset="1" stop-color="#5D0F28"/>
</linearGradient>
<linearGradient id="paint5_linear_2609_3363" x1="59.3256" y1="50.1212" x2="69.8608" y2="50.1212" gradientUnits="userSpaceOnUse">
<stop stop-color="white" stop-opacity="0.5"/>
<stop offset="1"/>
</linearGradient>
<linearGradient id="paint6_linear_2609_3363" x1="61.1767" y1="55.8106" x2="51.2315" y2="47.1832" gradientUnits="userSpaceOnUse">
<stop stop-color="#FF0000"/>
<stop offset="1" stop-color="#5D0F28"/>
</linearGradient>
</defs>
</svg>
