<svg width="100" height="100" viewBox="0 0 100 100" fill="none" xmlns="http://www.w3.org/2000/svg">
<path d="M96.2641 27.2909C95.6398 27.2786 95.0231 27.4286 94.4743 27.7263C93.9255 28.024 93.4635 28.4592 93.1335 28.9893C92.8035 29.5193 92.6169 30.1259 92.5919 30.7498C92.567 31.3737 92.7045 31.9933 92.9911 32.548L77.2095 48.1707C78.6911 44.6406 79.4515 40.8497 79.4462 37.0213C79.4462 36.7323 79.4462 36.4459 79.4306 36.1594L77.2043 38.3623C76.8874 44.7542 74.28 50.8184 69.859 55.4457L68.6977 56.594C66.9221 58.2435 64.9311 59.6449 62.7793 60.7601L58.9387 64.7074C59.7667 64.454 60.5774 64.1658 61.3707 63.8429L61.4279 63.8195C64.7167 62.4718 67.7292 60.53 70.3147 58.0912L70.3355 58.0729C70.6827 57.7501 71.0177 57.4185 71.3406 57.0783L71.3588 57.0601L94.5456 34.1103C95.034 34.362 95.574 34.4975 96.1234 34.506C97.0677 34.5049 97.9738 34.1336 98.6472 33.4717C99.3206 32.8098 99.7075 31.9103 99.7249 30.9662C99.7423 30.0221 99.3888 29.1089 98.7402 28.4227C98.0916 27.7365 97.1998 27.332 96.2562 27.2961L96.2641 27.2909ZM96.1703 32.2954C95.8933 32.2902 95.6241 32.203 95.3967 32.0448C95.1692 31.8866 94.9938 31.6645 94.8926 31.4066C94.7914 31.1488 94.7689 30.8667 94.828 30.596C94.8871 30.3253 95.0251 30.0783 95.2246 29.886C95.4241 29.6938 95.6762 29.5651 95.9488 29.5161C96.2215 29.4671 96.5026 29.5 96.7565 29.6108C97.0105 29.7215 97.2259 29.905 97.3755 30.1382C97.5252 30.3713 97.6023 30.6436 97.5972 30.9206C97.5897 31.2919 97.4353 31.6451 97.1678 31.9028C96.9004 32.1605 96.5417 32.3017 96.1703 32.2954Z" fill="black"/>
<path d="M76.1549 29.4912L77.9177 27.7466C76.6798 24.1155 74.7354 20.7653 72.1966 17.8891C69.6579 15.013 66.5749 12.6678 63.1256 10.9886L67.2005 6.82258C67.9699 7.198 68.8481 7.28634 69.6769 7.07172C70.5057 6.85709 71.2306 6.35359 71.7212 5.65189C72.2117 4.9502 72.4355 4.09642 72.3524 3.24433C72.2692 2.39224 71.8846 1.59783 71.2677 1.00417C70.6509 0.410514 69.8423 0.0566235 68.9876 0.00623294C68.133 -0.0441576 67.2884 0.212261 66.606 0.729316C65.9237 1.24637 65.4483 1.99007 65.2656 2.82649C65.083 3.66291 65.2049 4.53708 65.6096 5.29155L60.9644 10.0435C58.4247 9.05351 55.7567 8.431 53.0411 8.19477L50.9945 10.296C53.8152 10.3448 56.6102 10.8423 59.2746 11.7698L53.7571 17.3992H56.8426L61.493 12.6421C65.0025 14.2345 68.1282 16.5633 70.6581 19.4706C73.1879 22.3778 75.0626 25.7954 76.1549 29.4912ZM68.7888 2.16961C69.0659 2.16961 69.3367 2.25176 69.5671 2.40569C69.7974 2.55961 69.977 2.7784 70.083 3.03437C70.189 3.29034 70.2168 3.572 70.1627 3.84373C70.1087 4.11547 69.9753 4.36508 69.7793 4.56099C69.5834 4.7569 69.3338 4.89032 69.0621 4.94437C68.7904 4.99842 68.5087 4.97068 68.2527 4.86465C67.9968 4.75863 67.778 4.57908 67.624 4.34871C67.4701 4.11834 67.388 3.84751 67.388 3.57045C67.388 3.19892 67.5355 2.84261 67.7983 2.5799C68.061 2.31719 68.4173 2.16961 68.7888 2.16961Z" fill="black"/>
<path d="M31.3177 18.4017L31.4089 18.3105L32.026 17.7012C33.9146 15.897 36.0557 14.3769 38.3818 13.1889L42.1964 9.28839C37.7842 10.6126 33.7538 12.9752 30.4429 16.178L29.9221 16.6858L5.2616 41.0911C4.49581 40.6977 3.61468 40.5909 2.77705 40.7898C1.93942 40.9887 1.20041 41.4803 0.693225 42.1759C0.186043 42.8716 -0.0559348 43.7256 0.0109063 44.5839C0.0777474 45.4422 0.449007 46.2484 1.05777 46.8572C1.66653 47.466 2.47274 47.8372 3.33106 47.9041C4.18939 47.9709 5.04336 47.7289 5.73902 47.2217C6.43469 46.7146 6.92629 45.9755 7.1252 45.1379C7.32411 44.3003 7.21725 43.4192 6.82388 42.6534L23.798 25.8459C22.3126 29.3833 21.5495 33.1821 21.5535 37.0188C21.5535 37.2791 21.5535 37.5395 21.5535 37.7999L23.785 35.5893C24.1301 29.1366 26.807 23.0288 31.3177 18.4017ZM3.58476 45.6998C3.30766 45.6946 3.03834 45.6073 2.81086 45.449C2.58339 45.2907 2.40798 45.0684 2.30685 44.8104C2.20571 44.5523 2.1834 44.2701 2.24271 43.9994C2.30203 43.7287 2.44032 43.4816 2.64008 43.2895C2.83985 43.0974 3.0921 42.9689 3.36494 42.9202C3.63777 42.8715 3.91892 42.9048 4.17281 43.0159C4.4267 43.1271 4.64192 43.311 4.79124 43.5445C4.94055 43.778 5.01726 44.0505 5.01164 44.3276C5.00826 44.5114 4.96864 44.6928 4.89506 44.8613C4.82148 45.0299 4.71538 45.1822 4.58284 45.3097C4.4503 45.4371 4.29392 45.5372 4.12266 45.6041C3.95139 45.6711 3.7686 45.7036 3.58476 45.6998Z" fill="black"/>
<path d="M41.5193 62.2052L46.063 57.5418L44.4825 56.0029L39.3165 61.3043C35.8581 59.7039 32.7796 57.3862 30.2854 54.505C27.7912 51.6239 25.9384 48.2451 24.8499 44.5931L23.0897 46.3351C25.5732 53.5921 30.8221 59.5747 37.6944 62.9811L32.6613 68.147C31.8887 67.7683 31.0061 67.678 30.1728 67.8925C29.3396 68.107 28.6103 68.6122 28.1167 69.317C27.6231 70.0218 27.3975 70.8798 27.4807 71.7362C27.5638 72.5926 27.9502 73.3912 28.5703 73.9878C29.1903 74.5844 30.0031 74.9399 30.8621 74.9901C31.7211 75.0403 32.5697 74.7819 33.255 74.2616C33.9403 73.7412 34.4171 72.9932 34.5995 72.1523C34.7818 71.3113 34.6578 70.4329 34.2496 69.6755L39.8399 63.9471C42.4483 64.9821 45.1939 65.6303 47.9898 65.8713L50.0363 63.7701C47.1309 63.7179 44.2536 63.1892 41.5193 62.2052ZM31.0755 72.7766C30.7985 72.7766 30.5276 72.6944 30.2973 72.5405C30.0669 72.3866 29.8874 72.1678 29.7813 71.9118C29.6753 71.6558 29.6476 71.3742 29.7016 71.1024C29.7557 70.8307 29.8891 70.5811 30.085 70.3852C30.2809 70.1893 30.5305 70.0559 30.8023 70.0018C31.074 69.9478 31.3557 69.9755 31.6116 70.0815C31.8676 70.1875 32.0864 70.3671 32.2403 70.5975C32.3942 70.8278 32.4764 71.0987 32.4764 71.3757C32.4757 71.747 32.3279 72.1029 32.0653 72.3655C31.8028 72.6281 31.4469 72.7759 31.0755 72.7766Z" fill="black"/>
<path d="M25.3759 40.8541L37.322 49.7539L48.4454 58.0366L48.5991 58.1511H48.7683L48.9193 57.8126L58.2331 36.9433L58.28 36.8417L58.3815 36.6126L69.7965 11.0225L25.3759 40.8541ZM58.1211 36.36L48.586 57.7111L37.5408 49.4831L25.9617 40.8594L69.0154 11.9651L58.1211 36.36Z" fill="#350003"/>
<path d="M69.0103 11.9651L69.0076 11.9729L37.5408 49.4909L25.9618 40.8672L69.0103 11.9651Z" fill="url(#paint0_linear_919_3437)"/>
<path d="M69.0076 11.9728L58.1211 36.3599L48.586 57.7188L37.5408 49.4909L69.0076 11.9728Z" fill="url(#paint1_linear_919_3437)"/>
<path style="mix-blend-mode:screen" d="M65.7555 15.8265C64.6046 17.2612 63.4381 18.6907 62.2794 20.1045L58.7747 24.3591C56.4313 27.1946 54.0879 30.0093 51.7262 32.8344C49.3646 35.6595 46.9952 38.4612 44.6153 41.2603L41.0403 45.455C39.8373 46.8454 38.6448 48.2437 37.4366 49.6211C38.5875 48.189 39.754 46.7699 40.9127 45.343L44.4148 41.0885C46.7582 38.2529 49.1146 35.4382 51.4659 32.6131C53.8171 29.788 56.1943 26.9863 58.5768 24.1873L62.1518 19.9925C63.3522 18.6073 64.5447 17.2117 65.7555 15.8265Z" fill="url(#paint2_linear_919_3437)"/>
<path d="M58.3789 36.6126L58.1185 36.3522L48.5834 57.7032L48.4402 58.0209L48.5938 58.1355H69.8225L74.6994 52.5894L58.3789 36.6126ZM69.6689 57.8126H48.9141L58.2304 36.9432L58.4491 37.1567L74.2229 52.6206L69.6689 57.8126Z" fill="#4C0D27"/>
<path d="M74.2334 52.6206L69.6663 57.8126H69.6533L58.4492 37.1567L74.2334 52.6206Z" fill="url(#paint3_linear_919_3437)"/>
<path d="M69.6533 57.8126H48.9167L58.2305 36.9432L58.4492 37.1567L69.6533 57.8126Z" fill="url(#paint4_linear_919_3437)"/>
<path style="mix-blend-mode:screen" d="M59.1627 38.43C60.0133 39.8673 60.8456 41.3159 61.6598 42.7757C62.4739 44.2356 63.2767 45.6989 64.0683 47.1657C64.8494 48.6369 65.6462 50.108 66.4117 51.5922C67.1772 53.0763 68.9243 56.3128 69.6612 57.8126C68.8098 56.3753 66.9923 53.1753 66.1773 51.7171C65.3623 50.259 64.5604 48.7957 63.7662 47.3271C62.9721 45.8586 62.1883 44.3823 61.4228 42.9007C60.6573 41.4191 59.9022 39.9298 59.1627 38.43Z" fill="url(#paint5_linear_919_3437)"/>
<path d="M58.2305 36.9432L49.4323 57.8126H48.9167L58.2305 36.9432Z" fill="url(#paint6_linear_919_3437)"/>
<path d="M0 99.3746V97.2732H0.771413C0.898942 97.2691 1.02572 97.2942 1.14216 97.3463C1.23361 97.3886 1.31012 97.4576 1.36161 97.5442C1.41055 97.6297 1.43581 97.7267 1.43476 97.8252C1.43705 97.9017 1.4205 97.9776 1.38655 98.0463C1.35567 98.1043 1.31117 98.1539 1.25687 98.1909C1.20308 98.2269 1.14346 98.2534 1.08064 98.269V98.2907C1.15343 98.2947 1.22392 98.3176 1.28513 98.3572C1.35419 98.4013 1.41129 98.4619 1.45139 98.5334C1.49687 98.6187 1.51922 98.7144 1.51622 98.811C1.51793 98.9124 1.49208 99.0124 1.44141 99.1003C1.38612 99.1895 1.30491 99.2597 1.20866 99.3015C1.08167 99.3557 0.944304 99.3812 0.806325 99.3763L0 99.3746ZM0.317541 98.1809H0.74315C0.809575 98.1819 0.875395 98.1682 0.936001 98.141C0.990883 98.1149 1.03791 98.0748 1.07233 98.0247C1.10696 97.9725 1.12493 97.911 1.12387 97.8484C1.1245 97.8078 1.1167 97.7674 1.10096 97.7299C1.08522 97.6925 1.06189 97.6587 1.03243 97.6306C0.954277 97.5648 0.853291 97.5326 0.751461 97.5409H0.315879L0.317541 98.1809ZM0.317541 99.1036H0.7764C0.894547 99.1161 1.01311 99.0841 1.10891 99.0139C1.14065 98.987 1.16595 98.9533 1.18293 98.9153C1.19991 98.8773 1.20813 98.836 1.20699 98.7944C1.20764 98.73 1.19037 98.6667 1.15712 98.6115C1.12273 98.5548 1.07322 98.5087 1.01414 98.4785C0.94579 98.4436 0.869748 98.4264 0.793024 98.4286H0.315879L0.317541 99.1036Z" fill="black"/>
<path d="M3.15724 98.7213V97.7969H3.46481V99.3747H3.16223V99.102H3.14228C3.10538 99.1871 3.04478 99.2599 2.96771 99.3115C2.88001 99.3706 2.7758 99.4003 2.67012 99.3963C2.57589 99.3978 2.48295 99.3743 2.40079 99.3281C2.32173 99.2808 2.25818 99.2115 2.21791 99.1286C2.17036 99.0244 2.1476 98.9106 2.15141 98.7961V97.7986H2.45898V98.7695C2.45428 98.8633 2.4865 98.9552 2.54876 99.0255C2.57848 99.0572 2.61461 99.0822 2.65475 99.0988C2.69488 99.1155 2.73809 99.1233 2.78151 99.122C2.84427 99.1213 2.90587 99.105 2.96074 99.0745C3.0156 99.044 3.062 99.0003 3.09573 98.9474C3.13869 98.88 3.16014 98.8012 3.15724 98.7213Z" fill="black"/>
<path d="M4.32093 97.5542C4.29567 97.5548 4.27056 97.5503 4.24712 97.5408C4.22369 97.5314 4.20241 97.5173 4.1846 97.4994C4.16548 97.4838 4.15007 97.4641 4.13949 97.4418C4.1289 97.4196 4.12341 97.3952 4.12341 97.3705C4.12341 97.3459 4.1289 97.3215 4.13949 97.2992C4.15007 97.2769 4.16548 97.2573 4.1846 97.2417C4.20241 97.2238 4.22369 97.2097 4.24712 97.2002C4.27056 97.1908 4.29567 97.1862 4.32093 97.1868C4.34641 97.1864 4.37173 97.191 4.39542 97.2004C4.4191 97.2099 4.44068 97.2239 4.45892 97.2417C4.47681 97.258 4.4911 97.2779 4.50088 97.3001C4.51066 97.3223 4.5157 97.3463 4.5157 97.3705C4.5157 97.3948 4.51066 97.4188 4.50088 97.4409C4.4911 97.4631 4.47681 97.483 4.45892 97.4994C4.44068 97.5172 4.4191 97.5312 4.39542 97.5406C4.37173 97.55 4.34641 97.5547 4.32093 97.5542ZM4.16631 99.3747V97.797H4.47222V99.3747H4.16631Z" fill="black"/>
<path d="M5.48311 97.2733V99.3764H5.17554V97.2733H5.48311Z" fill="black"/>
<path d="M6.77479 99.4063C6.65678 99.4065 6.54126 99.3724 6.44228 99.3082C6.3394 99.2383 6.25819 99.141 6.20786 99.0272C6.09477 98.7461 6.09477 98.4322 6.20786 98.1511C6.25917 98.0383 6.34093 97.9422 6.44394 97.8734C6.54551 97.8083 6.66412 97.7747 6.78476 97.777C6.86621 97.7735 6.94727 97.7901 7.02084 97.8252C7.07474 97.8535 7.12227 97.8926 7.16049 97.9399C7.18961 97.9754 7.21575 98.0132 7.23863 98.053H7.25692V97.2733H7.56449V99.3764H7.26357V99.132H7.23863C7.21537 99.1724 7.18867 99.2108 7.15883 99.2467C7.11968 99.294 7.07095 99.3325 7.01585 99.3597C6.94063 99.3951 6.85776 99.4111 6.77479 99.4063ZM6.84295 99.1436C6.92346 99.146 7.00247 99.1215 7.06739 99.0738C7.13192 99.0233 7.18043 98.9551 7.20704 98.8776C7.24068 98.7844 7.25702 98.6858 7.25526 98.5867C7.25756 98.4887 7.24178 98.3912 7.20871 98.299C7.18162 98.2227 7.13314 98.1557 7.06905 98.1062C7.00307 98.0595 6.92371 98.0356 6.84295 98.038C6.76002 98.0348 6.67849 98.06 6.61186 98.1095C6.54799 98.1607 6.49963 98.2286 6.4722 98.3057C6.44064 98.396 6.42489 98.491 6.42565 98.5867C6.42458 98.6835 6.44091 98.7798 6.47387 98.8709C6.50083 98.9492 6.54922 99.0183 6.61352 99.0704C6.67897 99.1211 6.76024 99.1471 6.84295 99.1436Z" fill="black"/>
<path d="M8.43897 97.5542C8.41371 97.5548 8.3886 97.5503 8.36516 97.5408C8.34173 97.5314 8.32045 97.5173 8.30264 97.4994C8.28352 97.4838 8.26811 97.4641 8.25753 97.4418C8.24695 97.4196 8.24146 97.3952 8.24146 97.3705C8.24146 97.3459 8.24695 97.3215 8.25753 97.2992C8.26811 97.2769 8.28352 97.2573 8.30264 97.2417C8.32045 97.2238 8.34173 97.2097 8.36516 97.2002C8.3886 97.1908 8.41371 97.1862 8.43897 97.1868C8.46445 97.1864 8.48977 97.191 8.51346 97.2004C8.53714 97.2099 8.55873 97.2239 8.57696 97.2417C8.59485 97.258 8.60914 97.2779 8.61892 97.3001C8.6287 97.3223 8.63375 97.3463 8.63375 97.3705C8.63375 97.3948 8.6287 97.4188 8.61892 97.4409C8.60914 97.4631 8.59485 97.483 8.57696 97.4994C8.55873 97.5172 8.53714 97.5312 8.51346 97.5406C8.48977 97.55 8.46445 97.5547 8.43897 97.5542ZM8.28435 99.3747V97.797H8.59192V99.3747H8.28435Z" fill="black"/>
<path d="M9.60115 98.437V99.373H9.29358V97.7953H9.58784V98.053H9.6078C9.64154 97.9706 9.69952 97.9004 9.77405 97.8518C9.86242 97.7978 9.96482 97.7712 10.0683 97.7753C10.1667 97.7729 10.264 97.7958 10.3509 97.8418C10.4322 97.888 10.4976 97.9575 10.5388 98.0413C10.5869 98.1454 10.6097 98.2593 10.6053 98.3738V99.3713H10.2977V98.4054C10.3033 98.3078 10.2718 98.2116 10.2096 98.1361C10.1779 98.1033 10.1396 98.0777 10.0971 98.0611C10.0547 98.0444 10.0091 98.0371 9.96358 98.0397C9.89739 98.0381 9.83197 98.0541 9.77405 98.0862C9.71822 98.1175 9.67262 98.1643 9.64271 98.2209C9.61133 98.2884 9.59706 98.3626 9.60115 98.437Z" fill="black"/>
<path d="M11.9718 99.9998C11.8622 100.002 11.7531 99.9853 11.6493 99.9499C11.5676 99.9221 11.4924 99.8779 11.4282 99.8202C11.3747 99.7699 11.3318 99.7094 11.3018 99.6423L11.5662 99.5326C11.5872 99.5672 11.6117 99.5995 11.6393 99.629C11.6754 99.6665 11.7191 99.696 11.7673 99.7155C11.8332 99.7424 11.9041 99.7548 11.9752 99.752C12.0783 99.756 12.1798 99.7263 12.2644 99.6673C12.3036 99.6348 12.3343 99.5933 12.354 99.5465C12.3737 99.4996 12.3817 99.4486 12.3775 99.3979V99.087H12.3592C12.3351 99.1264 12.3085 99.1642 12.2794 99.2001C12.239 99.2444 12.1905 99.2806 12.1364 99.3065C12.0628 99.3392 11.9826 99.3546 11.902 99.3514C11.7852 99.3527 11.6703 99.3223 11.5695 99.2633C11.4671 99.2019 11.385 99.1117 11.3334 99.0039C11.2717 98.8713 11.2421 98.7261 11.247 98.58C11.2429 98.4319 11.2719 98.2848 11.3318 98.1494C11.3824 98.0367 11.4643 97.9409 11.5678 97.8734C11.6695 97.8084 11.788 97.7749 11.9087 97.777C11.9906 97.7739 12.0721 97.7904 12.1464 97.8252C12.2003 97.8535 12.2478 97.8925 12.2861 97.9399C12.3162 97.9749 12.3429 98.0128 12.3659 98.0529H12.3875V97.7969H12.6884V99.4096C12.6961 99.5236 12.6661 99.6369 12.603 99.7322C12.5399 99.8274 12.4472 99.8993 12.3393 99.9366C12.2218 99.9806 12.0972 100.002 11.9718 99.9998ZM11.9718 99.097C12.0511 99.099 12.1291 99.0776 12.1963 99.0355C12.26 98.9912 12.3087 98.9286 12.3359 98.856C12.3706 98.767 12.387 98.672 12.3841 98.5766C12.3862 98.4809 12.3704 98.3856 12.3376 98.2957C12.3105 98.2203 12.2619 98.1544 12.1979 98.1062C12.1321 98.0593 12.0526 98.0353 11.9718 98.038C11.8889 98.0348 11.8074 98.06 11.7407 98.1095C11.677 98.159 11.6291 98.226 11.6028 98.3023C11.5698 98.39 11.5534 98.483 11.5545 98.5766C11.553 98.6692 11.5693 98.7613 11.6028 98.8476C11.6304 98.9209 11.679 98.9845 11.7424 99.0305C11.8084 99.0775 11.8875 99.1025 11.9685 99.102L11.9718 99.097Z" fill="black"/>
<path d="M14.8996 99.4095C14.8064 99.4108 14.714 99.3921 14.6286 99.3547C14.5505 99.3184 14.4842 99.2608 14.4374 99.1884C14.3889 99.1096 14.3646 99.0183 14.3676 98.9257C14.3643 98.8493 14.3821 98.7733 14.4191 98.7063C14.4519 98.6492 14.4996 98.602 14.5571 98.57C14.6179 98.5351 14.6834 98.5094 14.7516 98.4935C14.8245 98.4766 14.8984 98.4638 14.9727 98.4553L15.2022 98.427C15.2468 98.4244 15.2904 98.4125 15.3302 98.3921C15.3435 98.3837 15.3542 98.3718 15.3612 98.3577C15.3682 98.3437 15.3713 98.3279 15.3701 98.3123C15.3724 98.2744 15.3669 98.2364 15.3541 98.2007C15.3412 98.1649 15.3212 98.1322 15.2953 98.1045C15.2647 98.0776 15.2292 98.0572 15.1906 98.0443C15.1521 98.0315 15.1113 98.0265 15.0708 98.0296C14.9838 98.0249 14.8978 98.0495 14.8264 98.0995C14.7728 98.1381 14.7303 98.1903 14.7034 98.2508L14.4158 98.1843C14.4448 98.0951 14.4963 98.0149 14.5654 97.9515C14.6318 97.8925 14.71 97.8483 14.7948 97.8218C14.8827 97.795 14.974 97.7815 15.0658 97.7819C15.1335 97.7821 15.2009 97.7893 15.267 97.8035C15.338 97.818 15.4057 97.8457 15.4665 97.885C15.5308 97.9265 15.5835 97.9837 15.6195 98.0513C15.6626 98.1384 15.6832 98.235 15.6793 98.3322V99.3796H15.3784V99.1652H15.3668C15.3437 99.2088 15.3133 99.2482 15.277 99.2815C15.2324 99.3225 15.1805 99.3547 15.124 99.3763C15.0522 99.4024 14.9759 99.4137 14.8996 99.4095ZM14.9661 99.1635C15.0423 99.1657 15.1178 99.1485 15.1855 99.1136C15.2429 99.0828 15.2906 99.0368 15.3235 98.9806C15.3536 98.9303 15.3702 98.873 15.3717 98.8144V98.6032C15.3528 98.6171 15.3313 98.6273 15.3086 98.6331C15.277 98.6415 15.2421 98.6498 15.2022 98.6564L15.0858 98.6747L14.991 98.6863C14.9344 98.693 14.8786 98.7058 14.8248 98.7246C14.7801 98.7398 14.7401 98.7662 14.7084 98.8011C14.6777 98.8383 14.6623 98.8859 14.6652 98.9341C14.6642 98.9665 14.6713 98.9986 14.6858 99.0277C14.7003 99.0567 14.7218 99.0816 14.7483 99.1003C14.8126 99.1434 14.8887 99.1655 14.9661 99.1635Z" fill="black"/>
<path d="M18.1382 99.3747H17.4565V97.2732H18.1598C18.3446 97.2678 18.5276 97.3114 18.6901 97.3996C18.8376 97.4819 18.9565 97.6071 19.031 97.7587C19.1099 97.9364 19.1507 98.1287 19.1507 98.3231C19.1507 98.5176 19.1099 98.7098 19.031 98.8875C18.9544 99.0401 18.834 99.1663 18.6851 99.25C18.5167 99.3382 18.3282 99.3811 18.1382 99.3747ZM17.7724 99.102H18.1199C18.2586 99.1064 18.396 99.0749 18.5189 99.0106C18.6245 98.9503 18.7079 98.8576 18.7566 98.7462C18.8136 98.6129 18.8408 98.4688 18.8364 98.3239C18.8404 98.1798 18.8138 98.0364 18.7583 97.9033C18.7096 97.7933 18.6276 97.7015 18.5239 97.6406C18.4051 97.5784 18.2722 97.548 18.1382 97.5525H17.7724V99.102Z" fill="black"/>
<path d="M20.4889 99.4063C20.3488 99.4101 20.2103 99.3756 20.0883 99.3065C19.9764 99.2392 19.8864 99.1411 19.8289 99.0239C19.7659 98.8904 19.7346 98.7442 19.7375 98.5966C19.735 98.4491 19.7663 98.3029 19.8289 98.1693C19.8848 98.0483 19.9753 97.9465 20.0889 97.8767C20.2024 97.8069 20.3341 97.7722 20.4673 97.777C20.5556 97.777 20.6432 97.7916 20.7267 97.8202C20.8104 97.8505 20.8869 97.8981 20.9511 97.9599C21.0214 98.0284 21.0754 98.112 21.1091 98.2042C21.1497 98.3218 21.1688 98.4457 21.1656 98.57V98.6781H19.912V98.4486H20.8647C20.8658 98.3738 20.8493 98.2998 20.8165 98.2325C20.784 98.1692 20.7339 98.1165 20.6723 98.0808C20.6107 98.0451 20.5401 98.028 20.469 98.0313C20.3895 98.0289 20.3111 98.0509 20.2446 98.0945C20.1813 98.1357 20.1302 98.1931 20.0966 98.2608C20.062 98.3287 20.0443 98.404 20.0451 98.4802V98.6598C20.0422 98.7526 20.061 98.8448 20.0999 98.9291C20.1346 98.9986 20.189 99.0564 20.2562 99.0954C20.3285 99.135 20.4099 99.155 20.4923 99.1536C20.5487 99.1549 20.605 99.1465 20.6585 99.1286C20.7051 99.1124 20.7477 99.0864 20.7832 99.0521C20.8186 99.0176 20.8459 98.9756 20.863 98.9291L21.154 98.9807C21.132 99.0648 21.0891 99.142 21.0293 99.2051C20.9656 99.2707 20.8884 99.3217 20.8032 99.3547C20.7026 99.3916 20.596 99.4091 20.4889 99.4063Z" fill="black"/>
<path d="M22.4624 99.4063C22.3239 99.4107 22.187 99.3749 22.0684 99.3032C21.9581 99.2331 21.8704 99.1326 21.8157 99.0139C21.7537 98.8825 21.723 98.7386 21.7259 98.5933C21.7236 98.4469 21.7548 98.3018 21.8173 98.1694C21.8732 98.0509 21.9613 97.9506 22.0717 97.8801C22.1885 97.8098 22.3228 97.7741 22.4591 97.777C22.5697 97.7749 22.6793 97.7976 22.7799 97.8435C22.8704 97.8845 22.9489 97.948 23.0077 98.0281C23.0656 98.1107 23.1011 98.2069 23.1108 98.3074H22.8115C22.7955 98.2331 22.7559 98.166 22.6985 98.1162C22.6335 98.0604 22.5496 98.0318 22.4641 98.0364C22.3841 98.0346 22.3057 98.0579 22.2396 98.1029C22.1731 98.1516 22.1214 98.2178 22.09 98.2941C22.0529 98.3871 22.0348 98.4866 22.0368 98.5867C22.0346 98.6884 22.0527 98.7896 22.09 98.8843C22.12 98.9618 22.1713 99.0292 22.238 99.0788C22.2943 99.116 22.359 99.1388 22.4262 99.1452C22.4935 99.1516 22.5613 99.1413 22.6237 99.1154C22.67 99.0936 22.7109 99.0618 22.7434 99.0223C22.7765 98.9791 22.7998 98.9291 22.8115 98.8759H23.1108C23.1006 98.9737 23.0663 99.0674 23.011 99.1486C22.9548 99.2303 22.8779 99.2957 22.7883 99.3381C22.6865 99.3861 22.5749 99.4094 22.4624 99.4063Z" fill="black"/>
<path d="M24.4092 99.4063C24.2691 99.4101 24.1305 99.3756 24.0086 99.3065C23.8967 99.2392 23.8067 99.1411 23.7492 99.0239C23.6862 98.8904 23.6549 98.7442 23.6578 98.5966C23.6553 98.4491 23.6866 98.3029 23.7492 98.1693C23.8051 98.0483 23.8956 97.9465 24.0091 97.8767C24.1227 97.8069 24.2544 97.7722 24.3876 97.777C24.4759 97.777 24.5635 97.7916 24.647 97.8202C24.7307 97.8505 24.8072 97.8981 24.8714 97.9599C24.9417 98.0284 24.9957 98.112 25.0294 98.2042C25.07 98.3218 25.0891 98.4457 25.0859 98.57V98.6781H23.8323V98.4486H24.785C24.7861 98.3738 24.7696 98.2998 24.7368 98.2325C24.7088 98.1854 24.6716 98.1443 24.6275 98.1117C24.5834 98.0791 24.5332 98.0557 24.4799 98.0429C24.4266 98.03 24.3713 98.0279 24.3172 98.0368C24.263 98.0457 24.2113 98.0653 24.1648 98.0945C24.1015 98.1357 24.0504 98.1931 24.0169 98.2608C23.9823 98.3287 23.9646 98.404 23.9653 98.4802V98.6598C23.9625 98.7526 23.9813 98.8448 24.0202 98.9291C24.055 98.9991 24.1101 99.057 24.1781 99.0954C24.2497 99.1352 24.3306 99.1553 24.4126 99.1536C24.469 99.1549 24.5253 99.1465 24.5788 99.1286C24.6254 99.1124 24.668 99.0864 24.7035 99.0521C24.7389 99.0176 24.7662 98.9756 24.7833 98.9291L25.0742 98.9807C25.0523 99.0648 25.0094 99.142 24.9496 99.2051C24.8862 99.2711 24.809 99.3222 24.7235 99.3547C24.6229 99.3916 24.5163 99.4091 24.4092 99.4063Z" fill="black"/>
<path d="M26.0252 98.437V99.373H25.7177V97.7953H26.0119V98.053H26.0319C26.0656 97.9706 26.1236 97.9004 26.1981 97.8518C26.2865 97.7978 26.3889 97.7712 26.4924 97.7753C26.5907 97.7729 26.6881 97.7958 26.775 97.8418C26.8566 97.8875 26.9222 97.9571 26.9629 98.0413C27.011 98.1454 27.0338 98.2593 27.0294 98.3738V99.3713H26.7235V98.4054C26.7292 98.3075 26.6971 98.211 26.6337 98.1361C26.602 98.1033 26.5636 98.0777 26.5212 98.0611C26.4787 98.0444 26.4332 98.0371 26.3876 98.0397C26.3215 98.0381 26.256 98.0541 26.1981 98.0862C26.1424 98.1171 26.0972 98.164 26.0684 98.2209C26.0357 98.288 26.0209 98.3625 26.0252 98.437Z" fill="black"/>
<path d="M28.4708 97.797V98.043H27.6096V97.797H28.4708ZM27.8407 97.4196H28.1483V98.9158C28.1451 98.9617 28.1543 99.0077 28.1749 99.0488C28.1903 99.0768 28.215 99.0985 28.2447 99.1103C28.2741 99.1205 28.305 99.1256 28.3361 99.1253C28.3577 99.1272 28.3794 99.1272 28.401 99.1253L28.4442 99.117L28.5007 99.3714L28.4243 99.393C28.3836 99.4001 28.3425 99.404 28.3012 99.4046C28.2237 99.4059 28.1467 99.3912 28.0751 99.3614C28.0075 99.3317 27.9498 99.2832 27.9089 99.2217C27.8635 99.1509 27.8409 99.068 27.844 98.984L27.8407 97.4196Z" fill="black"/>
<path d="M29.0992 99.3746V97.7969H29.3968V98.0479H29.4135C29.4404 97.9656 29.4943 97.8947 29.5664 97.8468C29.6396 97.7978 29.726 97.7723 29.8141 97.7736H29.8823H29.9438V98.0679L29.879 98.0562C29.8474 98.0538 29.8157 98.0538 29.7842 98.0562C29.7167 98.0549 29.6498 98.0703 29.5897 98.1011C29.5352 98.131 29.4893 98.1746 29.4567 98.2275C29.4232 98.2832 29.4059 98.3471 29.4068 98.412V99.3746H29.0992Z" fill="black"/>
<path d="M30.9596 99.4095C30.8664 99.4108 30.7739 99.3921 30.6886 99.3547C30.6102 99.3189 30.5438 99.2611 30.4974 99.1884C30.4484 99.1098 30.4235 99.0184 30.4259 98.9258C30.4234 98.8493 30.4412 98.7736 30.4774 98.7063C30.5113 98.6494 30.5594 98.6024 30.6171 98.57C30.6779 98.5351 30.7434 98.5094 30.8116 98.4935C30.8839 98.4764 30.9572 98.4637 31.0311 98.4553L31.2622 98.427C31.3068 98.4244 31.3504 98.4125 31.3902 98.3921C31.4034 98.3837 31.4142 98.3718 31.4212 98.3577C31.4282 98.3437 31.4313 98.3279 31.4301 98.3123C31.4324 98.2744 31.4269 98.2364 31.4141 98.2007C31.4012 98.1649 31.3812 98.1322 31.3553 98.1045C31.2932 98.0509 31.2126 98.024 31.1308 98.0296C31.0438 98.0246 30.9577 98.0492 30.8864 98.0995C30.8323 98.1376 30.7897 98.19 30.7634 98.2508L30.4741 98.1843C30.5043 98.0952 30.5563 98.0152 30.6254 97.9515C30.6915 97.8929 30.769 97.8487 30.8532 97.8218C30.9415 97.795 31.0335 97.7815 31.1258 97.7819C31.1934 97.7821 31.2609 97.7894 31.327 97.8035C31.398 97.818 31.4656 97.8457 31.5265 97.885C31.5908 97.9265 31.6435 97.9837 31.6794 98.0513C31.722 98.1386 31.742 98.2352 31.7376 98.3322V99.3796H31.4384V99.1652H31.4267C31.4037 99.2088 31.3733 99.2482 31.337 99.2815C31.2924 99.3225 31.2405 99.3547 31.184 99.3763C31.1121 99.4021 31.0358 99.4134 30.9596 99.4095ZM31.0261 99.1635C31.1022 99.1655 31.1777 99.1483 31.2455 99.1136C31.3029 99.0828 31.3506 99.0368 31.3835 98.9806C31.4136 98.9303 31.4302 98.873 31.4317 98.8144V98.6032C31.4126 98.6168 31.3912 98.6269 31.3686 98.6331C31.337 98.6415 31.3021 98.6498 31.2622 98.6564L31.1458 98.6747L31.051 98.6863C30.9944 98.693 30.9386 98.7058 30.8848 98.7246C30.8401 98.7398 30.8001 98.7662 30.7684 98.8011C30.7372 98.8382 30.7212 98.8857 30.7235 98.9341C30.7226 98.9667 30.7298 98.999 30.7446 99.028C30.7595 99.0571 30.7813 99.0819 30.8083 99.1003C30.8726 99.1434 30.9487 99.1655 31.0261 99.1635Z" fill="black"/>
<path d="M32.7436 97.2733V99.3764H32.436V97.2733H32.7436Z" fill="black"/>
<path d="M33.6013 97.5542C33.5758 97.5546 33.5505 97.55 33.5268 97.5406C33.5031 97.5312 33.4815 97.5172 33.4633 97.4994C33.4454 97.483 33.4311 97.4631 33.4213 97.4409C33.4115 97.4187 33.4065 97.3948 33.4065 97.3705C33.4065 97.3463 33.4115 97.3223 33.4213 97.3001C33.4311 97.2779 33.4454 97.258 33.4633 97.2417C33.4815 97.2239 33.5031 97.2098 33.5268 97.2004C33.5505 97.191 33.5758 97.1864 33.6013 97.1868C33.6265 97.1864 33.6516 97.1911 33.675 97.2005C33.6984 97.2099 33.7197 97.2239 33.7376 97.2417C33.7567 97.2573 33.7721 97.2769 33.7827 97.2992C33.7933 97.3215 33.7988 97.3458 33.7988 97.3705C33.7988 97.3952 33.7933 97.4195 33.7827 97.4418C33.7721 97.4641 33.7567 97.4838 33.7376 97.4994C33.7197 97.5171 33.6984 97.5311 33.675 97.5405C33.6516 97.55 33.6265 97.5546 33.6013 97.5542ZM33.4467 99.3747V97.7969H33.7526V99.3747H33.4467Z" fill="black"/>
<path d="M34.4226 99.3747V99.1652L35.2771 98.0796V98.0646H34.4459V97.7969H35.6545V98.0214L34.8382 99.102H35.6895V99.368L34.4226 99.3747Z" fill="black"/>
<path d="M36.9746 99.4063C36.8345 99.4101 36.696 99.3756 36.574 99.3065C36.4616 99.2398 36.3714 99.1415 36.3146 99.0239C36.2538 98.8922 36.2236 98.7483 36.2265 98.6033C36.224 98.4557 36.2553 98.3096 36.3179 98.176C36.3739 98.055 36.4643 97.9532 36.5779 97.8834C36.6915 97.8136 36.8231 97.7789 36.9564 97.7836C37.0446 97.7837 37.1322 97.7983 37.2157 97.8269C37.2995 97.8572 37.3759 97.9048 37.4401 97.9665C37.5135 98.0342 37.5703 98.1178 37.6064 98.2109C37.647 98.3285 37.6662 98.4523 37.6629 98.5767V98.6847H36.3928V98.4553H37.3454C37.3466 98.3805 37.33 98.3064 37.2972 98.2392C37.2647 98.1758 37.2146 98.1231 37.153 98.0875C37.0914 98.0518 37.0208 98.0346 36.9497 98.038C36.8702 98.0355 36.7918 98.0576 36.7253 98.1012C36.662 98.1424 36.6109 98.1998 36.5773 98.2674C36.5427 98.3354 36.525 98.4106 36.5258 98.4869V98.6664C36.5229 98.7593 36.5417 98.8515 36.5806 98.9358C36.6153 99.0053 36.6697 99.0631 36.7369 99.102C36.8092 99.1416 36.8906 99.1617 36.973 99.1602C37.0294 99.1616 37.0857 99.1532 37.1392 99.1353C37.1854 99.1191 37.2274 99.093 37.2623 99.0588C37.2988 99.0249 37.3268 98.9827 37.3437 98.9358L37.6347 98.9873C37.6127 99.0714 37.5698 99.1486 37.51 99.2117C37.4463 99.2774 37.3692 99.3284 37.2839 99.3614C37.1845 99.3954 37.0796 99.4106 36.9746 99.4063Z" fill="black"/>
<path d="M38.8733 99.4063C38.7553 99.4065 38.6398 99.3724 38.5408 99.3082C38.4379 99.2383 38.3567 99.141 38.3064 99.0272C38.1933 98.7461 38.1933 98.4322 38.3064 98.1511C38.3577 98.0383 38.4394 97.9422 38.5424 97.8734C38.644 97.8083 38.7626 97.7747 38.8833 97.777C38.9647 97.7735 39.0458 97.7901 39.1193 97.8252C39.1732 97.8535 39.2208 97.8926 39.259 97.9399C39.2881 97.9754 39.3143 98.0132 39.3371 98.053H39.3554V97.2733H39.663V99.3764H39.3621V99.132H39.3371C39.3139 99.1724 39.2872 99.2108 39.2573 99.2467C39.2178 99.2936 39.1692 99.3321 39.1144 99.3597C39.0391 99.3951 38.9563 99.4111 38.8733 99.4063ZM38.9415 99.1436C39.022 99.146 39.101 99.1215 39.1659 99.0738C39.2304 99.0233 39.2789 98.9551 39.3055 98.8776C39.3392 98.7844 39.3555 98.6858 39.3538 98.5867C39.3553 98.4888 39.3395 98.3914 39.3072 98.299C39.2801 98.2227 39.2316 98.1557 39.1676 98.1062C39.1016 98.0595 39.0222 98.0356 38.9415 98.038C38.8585 98.0348 38.777 98.06 38.7104 98.1095C38.6465 98.1607 38.5981 98.2286 38.5707 98.3057C38.5392 98.396 38.5234 98.491 38.5242 98.5867C38.5231 98.6835 38.5394 98.7798 38.5724 98.8709C38.5993 98.9492 38.6477 99.0183 38.712 99.0704C38.7775 99.1211 38.8587 99.1471 38.9415 99.1436Z" fill="black"/>
<path d="M43.1609 97.2733V99.3764H42.8766L41.806 97.8335H41.7877V99.3764H41.4635V97.2733H41.7561L42.8268 98.8177H42.8467V97.2733H43.1609Z" fill="black"/>
<path d="M44.5674 99.4062C44.4273 99.4101 44.2887 99.3756 44.1668 99.3065C44.0549 99.2392 43.9649 99.1411 43.9074 99.0239C43.845 98.8902 43.8143 98.744 43.8176 98.5966C43.8146 98.4492 43.8453 98.303 43.9074 98.1693C43.9622 98.0484 44.0512 97.9463 44.1636 97.8757C44.2759 97.805 44.4065 97.769 44.5392 97.772C44.6274 97.772 44.715 97.7866 44.7985 97.8152C44.8823 97.8455 44.9587 97.8931 45.023 97.9548C45.0933 98.0234 45.1472 98.107 45.1809 98.1992C45.2215 98.3168 45.2407 98.4407 45.2374 98.565V98.6731H43.9905V98.4436H44.9432C44.9451 98.3687 44.9286 98.2945 44.895 98.2275C44.867 98.1803 44.8298 98.1393 44.7857 98.1067C44.7416 98.0741 44.6914 98.0507 44.6381 98.0379C44.5848 98.025 44.5295 98.0229 44.4753 98.0318C44.4212 98.0407 44.3695 98.0603 44.323 98.0895C44.2597 98.1307 44.2086 98.1881 44.1751 98.2558C44.1405 98.3237 44.1228 98.399 44.1235 98.4752V98.6548C44.1207 98.7476 44.1395 98.8398 44.1784 98.9241C44.2132 98.9941 44.2683 99.052 44.3363 99.0903C44.4079 99.1302 44.4888 99.1503 44.5708 99.1485C44.6272 99.1499 44.6835 99.1415 44.737 99.1236C44.7836 99.1074 44.8262 99.0813 44.8617 99.0471C44.8971 99.0126 44.9244 98.9705 44.9415 98.9241L45.2324 98.9756C45.2105 99.0598 45.1676 99.137 45.1078 99.2001C45.0444 99.2661 44.9672 99.3172 44.8817 99.3497C44.7814 99.3883 44.6748 99.4075 44.5674 99.4062Z" fill="black"/>
<path d="M46.6123 97.797V98.043H45.7511V97.797H46.6123ZM45.9822 97.4196H46.2898V98.9158C46.2866 98.9617 46.2958 99.0077 46.3164 99.0488C46.3312 99.0767 46.3553 99.0985 46.3845 99.1103C46.4145 99.1205 46.446 99.1256 46.4776 99.1253C46.4992 99.1272 46.5209 99.1272 46.5425 99.1253L46.5857 99.117L46.6422 99.3714L46.5657 99.393C46.5251 99.4 46.484 99.4039 46.4427 99.4046C46.3652 99.4059 46.2882 99.3912 46.2166 99.3614C46.149 99.3317 46.0913 99.2832 46.0504 99.2217C46.005 99.1509 45.9824 99.068 45.9855 98.984L45.9822 97.4196Z" fill="black"/>
<path d="M47.5832 99.3747L47.1194 97.7969H47.4353L47.7462 98.9607H47.7611L48.0704 97.7969H48.3879L48.6971 98.9507H48.7121L49.0197 97.7969H49.3372L48.8734 99.3747H48.5591L48.2399 98.2358H48.2167L47.8958 99.3747H47.5832Z" fill="black"/>
<path d="M50.5525 99.4063C50.4164 99.4098 50.2821 99.3746 50.1651 99.3048C50.0545 99.2363 49.9657 99.1377 49.9091 99.0205C49.8453 98.8873 49.814 98.7409 49.8177 98.5933C49.8142 98.4451 49.8455 98.2982 49.9091 98.1643C49.9652 98.0464 50.0541 97.9471 50.1651 97.8784C50.2834 97.8118 50.4168 97.7769 50.5525 97.7769C50.6882 97.7769 50.8216 97.8118 50.9399 97.8784C51.0509 97.9471 51.1398 98.0464 51.1959 98.1643C51.2595 98.2982 51.2908 98.4451 51.2873 98.5933C51.291 98.7409 51.2597 98.8873 51.1959 99.0205C51.1393 99.1377 51.0505 99.2363 50.9399 99.3048C50.8229 99.3746 50.6886 99.4098 50.5525 99.4063ZM50.5525 99.1486C50.638 99.1517 50.7219 99.1253 50.7902 99.0737C50.8549 99.0206 50.9033 98.9503 50.9299 98.8709C50.992 98.6905 50.992 98.4944 50.9299 98.314C50.9029 98.2348 50.8546 98.1646 50.7902 98.1111C50.7208 98.0603 50.6369 98.033 50.5508 98.033C50.4648 98.033 50.3809 98.0603 50.3114 98.1111C50.2471 98.1646 50.1988 98.2348 50.1718 98.314C50.1097 98.4944 50.1097 98.6905 50.1718 98.8709C50.1984 98.9503 50.2468 99.0206 50.3114 99.0737C50.3812 99.1261 50.467 99.1526 50.5542 99.1486H50.5525Z" fill="black"/>
<path d="M51.9191 99.3746V97.7969H52.2167V98.0479H52.2333C52.2596 97.9657 52.3129 97.8948 52.3846 97.8467C52.4585 97.798 52.5454 97.7725 52.634 97.7736H52.7021H52.7636V98.0679L52.6971 98.0562C52.6661 98.0537 52.635 98.0537 52.604 98.0562C52.5365 98.0549 52.4697 98.0703 52.4095 98.1011C52.3535 98.1312 52.3068 98.1761 52.2746 98.231C52.2423 98.2858 52.2257 98.3484 52.2266 98.412V99.3746H51.9191Z" fill="black"/>
<path d="M53.3206 99.3747V97.2733H53.6265V99.3764L53.3206 99.3747ZM53.6032 98.8394V98.4653H53.658L54.2865 97.8003H54.6539L53.9374 98.56H53.8891L53.6032 98.8394ZM54.3164 99.3747L53.7511 98.6249L53.964 98.4104L54.6938 99.3747H54.3164Z" fill="black"/>
<path d="M56.9399 99.4063C56.8038 99.4098 56.6695 99.3746 56.5526 99.3048C56.4415 99.2364 56.3521 99.1378 56.2949 99.0205C56.2319 98.8871 56.2006 98.7408 56.2034 98.5933C56.2007 98.4452 56.232 98.2985 56.2949 98.1643C56.3516 98.0463 56.441 97.947 56.5526 97.8784C56.6708 97.8118 56.8042 97.7769 56.9399 97.7769C57.0756 97.7769 57.209 97.8118 57.3273 97.8784C57.438 97.9476 57.5268 98.0467 57.5833 98.1643C57.6469 98.2982 57.6782 98.4451 57.6748 98.5933C57.6784 98.7409 57.6471 98.8873 57.5833 99.0205C57.5262 99.1373 57.4375 99.2358 57.3273 99.3048C57.2103 99.3744 57.076 99.4096 56.9399 99.4063ZM56.9399 99.1486C57.026 99.1519 57.1105 99.1255 57.1793 99.0737C57.244 99.0206 57.2924 98.9503 57.319 98.8709C57.3788 98.6901 57.3788 98.4948 57.319 98.314C57.2917 98.2318 57.2416 98.1591 57.1743 98.1045C57.1049 98.0537 57.021 98.0263 56.9349 98.0263C56.8489 98.0263 56.765 98.0537 56.6955 98.1045C56.6312 98.1583 56.5824 98.2283 56.5542 98.3073C56.4944 98.4881 56.4944 98.6834 56.5542 98.8643C56.582 98.9435 56.6309 99.0136 56.6955 99.0671C56.7648 99.1223 56.8514 99.1512 56.9399 99.1486Z" fill="black"/>
<path d="M59.0562 97.7969V98.043H58.1718V97.7969H59.0562ZM58.4095 99.3747V97.614C58.4064 97.5274 58.429 97.4418 58.4743 97.368C58.5156 97.3051 58.573 97.2546 58.6406 97.2217C58.7137 97.1887 58.7931 97.1722 58.8733 97.1735C58.9291 97.172 58.9849 97.177 59.0396 97.1884C59.073 97.1945 59.1058 97.2034 59.1377 97.215L59.0662 97.4628L59.0097 97.4478C58.9826 97.4448 58.9553 97.4448 58.9282 97.4478C58.898 97.4436 58.8673 97.4466 58.8384 97.4564C58.8095 97.4662 58.7834 97.4826 58.7619 97.5043C58.7256 97.5517 58.7083 97.6111 58.7137 97.6706V99.3896L58.4095 99.3747Z" fill="black"/>
<path d="M61.4236 99.3747H60.7437V97.2732H61.4452C61.6306 97.2678 61.8141 97.3114 61.9773 97.3996C62.1216 97.4832 62.2375 97.6083 62.3098 97.7587C62.3887 97.9364 62.4295 98.1287 62.4295 98.3231C62.4295 98.5176 62.3887 98.7098 62.3098 98.8875C62.2337 99.0405 62.1132 99.1668 61.964 99.25C61.7975 99.337 61.6114 99.38 61.4236 99.3747ZM61.0595 99.102H61.407C61.5457 99.1064 61.6831 99.0749 61.806 99.0106C61.9116 98.9503 61.995 98.8576 62.0438 98.7462C62.1007 98.6129 62.128 98.4688 62.1236 98.3239C62.1275 98.1798 62.1009 98.0364 62.0454 97.9033C61.9967 97.7933 61.9147 97.7015 61.811 97.6406C61.6922 97.5784 61.5593 97.548 61.4253 97.5525H61.0595V99.102Z" fill="black"/>
<path d="M63.7745 99.4062C63.6343 99.4101 63.4958 99.3756 63.3738 99.3065C63.2619 99.2392 63.1719 99.1411 63.1144 99.0239C63.052 98.8903 63.0213 98.744 63.0247 98.5966C63.0216 98.4492 63.0524 98.303 63.1144 98.1693C63.1707 98.0486 63.2612 97.947 63.3747 97.8773C63.4882 97.8075 63.6197 97.7726 63.7529 97.777C63.8411 97.777 63.9287 97.7916 64.0122 97.8202C64.096 97.8505 64.1724 97.8981 64.2366 97.9598C64.3069 98.0284 64.3609 98.112 64.3946 98.2042C64.4352 98.3218 64.4543 98.4457 64.4511 98.57V98.6781H63.1976V98.4486H64.1568C64.1588 98.3737 64.1422 98.2995 64.1086 98.2325C64.0807 98.1853 64.0435 98.1443 63.9994 98.1117C63.9553 98.0791 63.9051 98.0557 63.8518 98.0428C63.7985 98.03 63.7431 98.0279 63.689 98.0368C63.6349 98.0457 63.5831 98.0653 63.5367 98.0945C63.4734 98.1357 63.4223 98.1931 63.3888 98.2608C63.3542 98.3287 63.3365 98.404 63.3372 98.4802V98.6598C63.3344 98.7526 63.3532 98.8448 63.3921 98.9291C63.4269 98.9991 63.4819 99.057 63.55 99.0954C63.6216 99.1352 63.7025 99.1553 63.7844 99.1535C63.8409 99.1549 63.8971 99.1465 63.9507 99.1286C63.9973 99.1124 64.0398 99.0863 64.0754 99.0521C64.1108 99.0176 64.1381 98.9755 64.1552 98.9291L64.4461 98.9806C64.4242 99.0648 64.3813 99.142 64.3214 99.2051C64.2584 99.2714 64.181 99.3226 64.0953 99.3547C63.9927 99.3925 63.8837 99.41 63.7745 99.4062Z" fill="black"/>
<path d="M65.7479 99.4063C65.6094 99.4107 65.4725 99.3749 65.3539 99.3032C65.2436 99.2331 65.1559 99.1326 65.1012 99.0139C65.0398 98.8824 65.0097 98.7384 65.0131 98.5933C65.0102 98.447 65.0409 98.302 65.1028 98.1694C65.1587 98.0509 65.2469 97.9506 65.3572 97.8801C65.474 97.8098 65.6083 97.7741 65.7446 97.777C65.8552 97.7747 65.9649 97.7974 66.0654 97.8435C66.156 97.8845 66.2344 97.948 66.2932 98.0281C66.3518 98.1103 66.3873 98.2068 66.3963 98.3074H66.097C66.0811 98.2334 66.0421 98.1665 65.9857 98.1162C65.9199 98.0607 65.8355 98.0322 65.7496 98.0364C65.6697 98.0346 65.5912 98.0579 65.5251 98.1029C65.4586 98.1516 65.4069 98.2178 65.3755 98.2941C65.3384 98.3871 65.3203 98.4866 65.3223 98.5867C65.3201 98.6884 65.3382 98.7896 65.3755 98.8843C65.4061 98.9614 65.4573 99.0287 65.5235 99.0788C65.5798 99.116 65.6445 99.1388 65.7118 99.1452C65.779 99.1516 65.8468 99.1413 65.9092 99.1154C65.9557 99.094 65.9967 99.0621 66.0289 99.0223C66.0627 98.9794 66.086 98.9294 66.097 98.8759H66.3963C66.3861 98.9737 66.3519 99.0674 66.2965 99.1486C66.2407 99.2307 66.1637 99.2961 66.0738 99.3381C65.972 99.3861 65.8604 99.4094 65.7479 99.4063Z" fill="black"/>
<path d="M67.6948 99.4062C67.5546 99.4101 67.4161 99.3756 67.2941 99.3065C67.1822 99.2392 67.0922 99.1411 67.0347 99.0239C66.9723 98.8903 66.9416 98.744 66.945 98.5966C66.9419 98.4492 66.9726 98.303 67.0347 98.1693C67.091 98.0486 67.1815 97.947 67.295 97.8773C67.4085 97.8075 67.54 97.7726 67.6731 97.777C67.7614 97.777 67.849 97.7916 67.9325 97.8202C68.0163 97.8505 68.0927 97.8981 68.1569 97.9598C68.2302 98.0276 68.2871 98.1112 68.3232 98.2042C68.3644 98.3217 68.3841 98.4456 68.3814 98.57V98.6781H67.1262V98.4486H68.0805C68.0819 98.3736 68.0648 98.2993 68.0306 98.2325C68.0026 98.1853 67.9655 98.1443 67.9213 98.1117C67.8772 98.0791 67.827 98.0557 67.7737 98.0428C67.7204 98.03 67.6651 98.0279 67.611 98.0368C67.5569 98.0457 67.5051 98.0653 67.4587 98.0945C67.3958 98.1362 67.3448 98.1935 67.3107 98.2608C67.2761 98.3287 67.2584 98.404 67.2592 98.4802V98.6598C67.256 98.7528 67.2754 98.8452 67.3157 98.9291C67.3494 98.9993 67.404 99.0574 67.472 99.0954C67.5436 99.1352 67.6245 99.1553 67.7064 99.1535C67.7628 99.1549 67.8191 99.1465 67.8726 99.1286C67.9192 99.1124 67.9618 99.0863 67.9973 99.0521C68.0328 99.0176 68.06 98.9755 68.0771 98.9291L68.3681 98.9806C68.3461 99.0648 68.3032 99.142 68.2434 99.2051C68.1803 99.2714 68.103 99.3226 68.0173 99.3547C67.9142 99.3928 67.8046 99.4103 67.6948 99.4062Z" fill="black"/>
<path d="M69.3107 98.437V99.373H69.0032V97.7953H69.2991V98.053H69.3107C69.3445 97.9706 69.4025 97.9004 69.477 97.8518C69.5654 97.7978 69.6678 97.7712 69.7713 97.7753C69.8696 97.7727 69.967 97.7956 70.0539 97.8418C70.1359 97.8869 70.2016 97.9567 70.2417 98.0413C70.2898 98.1454 70.3126 98.2593 70.3083 98.3738V99.3713H70.0023V98.4054C70.0081 98.3075 69.976 98.211 69.9126 98.1361C69.8809 98.1033 69.8425 98.0777 69.8 98.0611C69.7576 98.0444 69.7121 98.0371 69.6665 98.0397C69.6003 98.0381 69.5349 98.0541 69.477 98.0862C69.4212 98.1171 69.376 98.164 69.3473 98.2209C69.3176 98.2889 69.3051 98.3631 69.3107 98.437Z" fill="black"/>
<path d="M71.7581 97.797V98.043H70.8953V97.797H71.7581ZM71.1263 97.4196H71.4339V98.9158C71.4308 98.9617 71.4399 99.0077 71.4605 99.0488C71.4765 99.0764 71.501 99.098 71.5303 99.1103C71.5603 99.1207 71.5918 99.1258 71.6234 99.1253C71.645 99.1272 71.6667 99.1272 71.6883 99.1253L71.7315 99.117L71.7864 99.3714L71.7099 99.393C71.6693 99.4001 71.6281 99.404 71.5869 99.4046C71.5093 99.4059 71.4324 99.3912 71.3608 99.3614C71.2931 99.3317 71.2354 99.2832 71.1945 99.2217C71.1492 99.1509 71.1265 99.068 71.1297 98.984L71.1263 97.4196Z" fill="black"/>
<path d="M72.3849 99.3746V97.7969H72.6825V98.0479H72.6991C72.7261 97.9656 72.7799 97.8947 72.8521 97.8467C72.9254 97.7981 73.0117 97.7726 73.0998 97.7736H73.1679H73.2295V98.0679L73.1646 98.0562C73.1331 98.0537 73.1014 98.0537 73.0698 98.0562C73.0028 98.0549 72.9365 98.0703 72.877 98.1011C72.822 98.1309 72.7756 98.1745 72.7423 98.2275C72.7089 98.2831 72.6916 98.347 72.6925 98.412V99.3746H72.3849Z" fill="black"/>
<path d="M74.2451 99.4095C74.1519 99.4108 74.0595 99.3921 73.9741 99.3547C73.896 99.3184 73.8297 99.2608 73.7829 99.1884C73.7344 99.1096 73.7101 99.0183 73.7131 98.9257C73.7101 98.8495 73.7273 98.7738 73.763 98.7063C73.7968 98.6494 73.845 98.6024 73.9026 98.57C73.9634 98.5351 74.0289 98.5094 74.0971 98.4935C74.1701 98.4766 74.2439 98.4638 74.3183 98.4553L74.5477 98.427C74.5923 98.4244 74.6359 98.4125 74.6757 98.3921C74.689 98.3837 74.6997 98.3718 74.7067 98.3577C74.7138 98.3437 74.7168 98.3279 74.7156 98.3123C74.7179 98.2744 74.7125 98.2364 74.6996 98.2007C74.6867 98.1649 74.6667 98.1322 74.6408 98.1045C74.6103 98.0776 74.5747 98.0572 74.5361 98.0443C74.4976 98.0315 74.4569 98.0265 74.4164 98.0296C74.3294 98.0249 74.2433 98.0495 74.172 98.0995C74.1178 98.1376 74.0753 98.19 74.0489 98.2508L73.7613 98.1843C73.7903 98.0951 73.8418 98.0149 73.9109 97.9515C73.9774 97.8925 74.0556 97.8483 74.1404 97.8218C74.2282 97.795 74.3195 97.7815 74.4114 97.7819C74.479 97.7821 74.5464 97.7893 74.6125 97.8035C74.6835 97.818 74.7512 97.8457 74.812 97.885C74.8764 97.9265 74.929 97.9837 74.965 98.0513C75.0081 98.1384 75.0287 98.235 75.0248 98.3322V99.3796H74.7239V99.1652H74.7123C74.6892 99.2088 74.6589 99.2482 74.6225 99.2815C74.5782 99.3229 74.5263 99.3551 74.4696 99.3763C74.3978 99.4024 74.3214 99.4137 74.2451 99.4095ZM74.3116 99.1635C74.3878 99.1657 74.4633 99.1485 74.5311 99.1136C74.5884 99.0828 74.6362 99.0368 74.669 98.9806C74.6992 98.9303 74.7158 98.873 74.7173 98.8144V98.6032C74.6983 98.6171 74.6769 98.6273 74.6541 98.6331C74.6225 98.6415 74.5876 98.6498 74.5477 98.6564L74.4313 98.6747L74.3365 98.6863C74.2799 98.693 74.2241 98.7058 74.1703 98.7246C74.1257 98.7398 74.0856 98.7662 74.0539 98.8011C74.0232 98.8383 74.0078 98.8859 74.0107 98.9341C74.0097 98.9665 74.0168 98.9986 74.0313 99.0277C74.0458 99.0567 74.0673 99.0816 74.0938 99.1003C74.1581 99.1434 74.2342 99.1655 74.3116 99.1635Z" fill="black"/>
<path d="M76.029 97.2733V99.3764H75.7231V97.2733H76.029Z" fill="black"/>
<path d="M76.887 97.5543C76.8617 97.5548 76.8366 97.5503 76.8132 97.5408C76.7897 97.5314 76.7685 97.5173 76.7506 97.4994C76.7315 97.4838 76.7161 97.4641 76.7055 97.4419C76.6949 97.4196 76.6895 97.3952 76.6895 97.3705C76.6895 97.3459 76.6949 97.3215 76.7055 97.2992C76.7161 97.2769 76.7315 97.2573 76.7506 97.2417C76.7872 97.2063 76.8361 97.1866 76.887 97.1866C76.9378 97.1866 76.9867 97.2063 77.0233 97.2417C77.0424 97.2573 77.0578 97.2769 77.0684 97.2992C77.079 97.3215 77.0845 97.3459 77.0845 97.3705C77.0845 97.3952 77.079 97.4196 77.0684 97.4419C77.0578 97.4641 77.0424 97.4838 77.0233 97.4994C77.0055 97.5173 76.9842 97.5314 76.9608 97.5408C76.9373 97.5503 76.9122 97.5548 76.887 97.5543ZM76.7324 99.3747V97.797H77.0383V99.3747H76.7324Z" fill="black"/>
<path d="M77.7083 99.3747V99.1652L78.5628 98.0796V98.0646H77.7315V97.7969H78.9535V98.0214L78.1222 99.102H78.9734V99.368L77.7083 99.3747Z" fill="black"/>
<path d="M80.2603 99.4062C80.1202 99.4101 79.9816 99.3756 79.8596 99.3065C79.7478 99.2392 79.6577 99.1411 79.6003 99.0239C79.5379 98.8903 79.5071 98.744 79.5105 98.5966C79.5075 98.4492 79.5382 98.303 79.6003 98.1693C79.6566 98.0486 79.7471 97.947 79.8606 97.8773C79.9741 97.8075 80.1055 97.7726 80.2387 97.777C80.3269 97.777 80.4146 97.7916 80.498 97.8202C80.5818 97.8505 80.6583 97.8981 80.7225 97.9598C80.7958 98.0276 80.8527 98.1112 80.8887 98.2042C80.93 98.3217 80.9497 98.4456 80.9469 98.57V98.6781H79.6917V98.4486H80.646C80.6475 98.3736 80.6303 98.2993 80.5961 98.2325C80.5682 98.1853 80.531 98.1443 80.4869 98.1117C80.4428 98.0791 80.3926 98.0557 80.3393 98.0428C80.286 98.03 80.2307 98.0279 80.1765 98.0368C80.1224 98.0457 80.0706 98.0653 80.0242 98.0945C79.9613 98.1362 79.9104 98.1935 79.8763 98.2608C79.8417 98.3287 79.824 98.404 79.8247 98.4802V98.6598C79.8219 98.7526 79.8407 98.8448 79.8796 98.9291C79.9166 99.0003 79.9747 99.0583 80.0458 99.0954C80.1174 99.1352 80.1983 99.1553 80.2803 99.1535C80.3367 99.1549 80.393 99.1465 80.4465 99.1286C80.4931 99.1124 80.5357 99.0863 80.5712 99.0521C80.6066 99.0176 80.6339 98.9755 80.651 98.9291L80.9419 98.9806C80.92 99.0648 80.8771 99.142 80.8173 99.2051C80.7542 99.2714 80.6769 99.3226 80.5911 99.3547C80.4854 99.3939 80.3729 99.4115 80.2603 99.4062Z" fill="black"/>
<path d="M82.1604 99.4063C82.0424 99.4064 81.9269 99.3723 81.8279 99.3082C81.725 99.2383 81.6438 99.141 81.5935 99.0272C81.4804 98.7461 81.4804 98.4322 81.5935 98.1511C81.6448 98.0383 81.7265 97.9422 81.8296 97.8734C81.9288 97.81 82.0443 97.7766 82.1621 97.777C82.2435 97.7735 82.3246 97.7901 82.3981 97.8252C82.452 97.8535 82.4996 97.8926 82.5378 97.9399C82.5669 97.9754 82.5931 98.0132 82.6159 98.053H82.6342V97.2733H82.9435V99.3764H82.6425V99.132H82.6109C82.5877 99.1724 82.561 99.2108 82.5312 99.2467C82.492 99.294 82.4433 99.3325 82.3882 99.3597C82.317 99.393 82.2389 99.4089 82.1604 99.4063ZM82.2269 99.1436C82.3075 99.1463 82.3865 99.1217 82.4513 99.0738C82.5159 99.0233 82.5644 98.9551 82.591 98.8776C82.6254 98.7846 82.6418 98.6858 82.6392 98.5867C82.6415 98.4887 82.6257 98.3912 82.5927 98.299C82.5656 98.2227 82.5171 98.1557 82.453 98.1062C82.3871 98.0593 82.3077 98.0354 82.2269 98.038C82.144 98.0348 82.0624 98.06 81.9958 98.1095C81.932 98.1603 81.8841 98.2284 81.8578 98.3057C81.8253 98.3957 81.8095 98.4909 81.8113 98.5867C81.8097 98.6834 81.8254 98.7797 81.8578 98.8709C81.8848 98.9492 81.9332 99.0183 81.9975 99.0704C82.0632 99.1206 82.1443 99.1465 82.2269 99.1436Z" fill="black"/>
<path d="M86.4465 97.2733V99.3764H86.1555L85.0849 97.8335H85.0666V99.3764H84.749V97.2733H85.0416L86.1123 98.8177H86.1322V97.2733H86.4465Z" fill="black"/>
<path d="M87.8529 99.4062C87.7128 99.4098 87.5743 99.3754 87.4523 99.3065C87.3404 99.2392 87.2504 99.1411 87.1929 99.0239C87.1303 98.8925 87.0985 98.7487 87.0998 98.6032C87.0968 98.4558 87.1275 98.3097 87.1896 98.176C87.2443 98.0525 87.3346 97.9481 87.4489 97.8762C87.5632 97.8042 87.6963 97.768 87.8313 97.772C87.9196 97.772 88.0072 97.7866 88.0907 97.8152C88.1746 97.8451 88.2512 97.8927 88.3151 97.9548C88.3884 98.0226 88.4453 98.1062 88.4814 98.1992C88.5226 98.3167 88.5423 98.4406 88.5396 98.565V98.6731H87.2844V98.4436H88.2386C88.2401 98.3686 88.2229 98.2943 88.1888 98.2275C88.1564 98.167 88.1089 98.116 88.0508 98.0795C87.9879 98.0426 87.9159 98.0242 87.843 98.0263C87.7629 98.024 87.6841 98.0461 87.6169 98.0895C87.554 98.1312 87.503 98.1885 87.4689 98.2558C87.4343 98.3237 87.4166 98.399 87.4174 98.4752V98.6548C87.4142 98.7478 87.4336 98.8402 87.4739 98.9241C87.5076 98.9943 87.5622 99.0524 87.6302 99.0904C87.7018 99.1302 87.7827 99.1503 87.8646 99.1485C87.921 99.1499 87.9773 99.1415 88.0308 99.1236C88.0774 99.1074 88.12 99.0813 88.1555 99.0471C88.1909 99.0126 88.2182 98.9705 88.2353 98.9241L88.5263 98.9756C88.5043 99.0598 88.4614 99.137 88.4016 99.2001C88.3388 99.266 88.2621 99.3171 88.1771 99.3497C88.0737 99.3893 87.9636 99.4085 87.8529 99.4062Z" fill="black"/>
<path d="M89.8979 97.797V98.043H89.0367V97.797H89.8979ZM89.2612 97.4196H89.5687V98.9158C89.5656 98.9617 89.5748 99.0077 89.5954 99.0488C89.6108 99.0768 89.6355 99.0985 89.6652 99.1103C89.6946 99.1205 89.7255 99.1256 89.7566 99.1253C89.7782 99.1272 89.7999 99.1272 89.8215 99.1253L89.8647 99.117L89.9212 99.3714L89.8447 99.393C89.8041 99.4001 89.763 99.404 89.7217 99.4046C89.6442 99.4059 89.5672 99.3912 89.4956 99.3614C89.4279 99.3317 89.3702 99.2832 89.3293 99.2217C89.284 99.1509 89.2614 99.068 89.2645 98.984L89.2612 97.4196Z" fill="black"/>
<path d="M90.8689 99.3747L90.405 97.7969H90.7226L91.0318 98.9607H91.0468L91.3577 97.7969H91.6752L91.9828 98.9507H91.9977L92.3053 97.7969H92.6228L92.159 99.3747H91.8464L91.5256 98.2358H91.5023L91.1814 99.3747H90.8689Z" fill="black"/>
<path d="M93.8382 99.4063C93.702 99.4098 93.5677 99.3746 93.4508 99.3048C93.3402 99.2363 93.2514 99.1377 93.1948 99.0205C93.131 98.8873 93.0997 98.7409 93.1033 98.5933C93.0998 98.4451 93.1312 98.2982 93.1948 98.1643C93.2509 98.0464 93.3398 97.9471 93.4508 97.8784C93.569 97.8118 93.7025 97.7769 93.8382 97.7769C93.9739 97.7769 94.1073 97.8118 94.2255 97.8784C94.3366 97.9475 94.426 98.0467 94.4832 98.1643C94.5461 98.2985 94.5774 98.4452 94.5747 98.5933C94.5775 98.7408 94.5462 98.8871 94.4832 99.0205C94.4255 99.1375 94.3362 99.2359 94.2255 99.3048C94.1086 99.3746 93.9743 99.4098 93.8382 99.4063ZM93.8382 99.1486C93.9236 99.1517 94.0076 99.1253 94.0759 99.0737C94.1406 99.0206 94.189 98.9503 94.2155 98.8709C94.2776 98.6905 94.2776 98.4944 94.2155 98.314C94.1915 98.2331 94.1455 98.1606 94.0825 98.1045C94.015 98.0513 93.9308 98.0236 93.8448 98.0264C93.7578 98.0236 93.6726 98.0512 93.6037 98.1045C93.5394 98.1579 93.4911 98.2281 93.4641 98.3073C93.402 98.4878 93.402 98.6838 93.4641 98.8643C93.4907 98.9437 93.5391 99.0139 93.6037 99.0671C93.6711 99.1199 93.7542 99.1486 93.8398 99.1486H93.8382Z" fill="black"/>
<path d="M95.2047 99.3746V97.7969H95.5023V98.0479H95.5189C95.5459 97.9656 95.5998 97.8947 95.6719 97.8468C95.7451 97.7978 95.8315 97.7723 95.9196 97.7736H95.9878H96.0493V98.0679L95.9844 98.0562C95.9529 98.0538 95.9212 98.0538 95.8897 98.0562C95.8221 98.0549 95.7553 98.0703 95.6952 98.1011C95.6406 98.131 95.5948 98.1746 95.5622 98.2275C95.5287 98.2832 95.5114 98.3471 95.5123 98.412V99.3746H95.2047Z" fill="black"/>
<path d="M96.6062 99.3747V97.2733H96.9088V99.3764L96.6062 99.3747ZM96.8888 98.8394V98.4653H96.942L97.5705 97.8003H97.9379L97.2213 98.56H97.1731L96.8888 98.8394ZM97.6021 99.3747L97.0368 98.6249L97.2496 98.4104L97.9795 99.3747H97.6021Z" fill="black"/>
<path d="M99.6868 98.1827L99.4091 98.2325C99.3969 98.1953 99.3783 98.1604 99.3543 98.1295C99.3268 98.0961 99.2921 98.0694 99.2529 98.0513C99.2006 98.0282 99.1437 98.0174 99.0866 98.0197C99.0099 98.0173 98.9341 98.0375 98.8688 98.0779C98.8421 98.0925 98.8199 98.1142 98.8046 98.1406C98.7894 98.167 98.7817 98.1971 98.7824 98.2275C98.7814 98.2519 98.7862 98.2762 98.7963 98.2985C98.8064 98.3207 98.8215 98.3403 98.8406 98.3556C98.8971 98.3954 98.9619 98.4221 99.0301 98.4337L99.2795 98.4919C99.4026 98.5112 99.5178 98.5648 99.612 98.6465C99.6473 98.6824 99.6749 98.725 99.6932 98.7719C99.7115 98.8188 99.7201 98.8689 99.7184 98.9192C99.7197 99.0101 99.6911 99.0989 99.6369 99.1719C99.5767 99.2461 99.4982 99.3034 99.4091 99.3381C99.3036 99.3808 99.1905 99.4017 99.0766 99.3996C98.9244 99.4067 98.7736 99.3673 98.6444 99.2866C98.5895 99.2501 98.5428 99.2026 98.5073 99.1471C98.4718 99.0915 98.4483 99.0292 98.4382 98.964L98.7358 98.9192C98.7523 98.9864 98.7924 99.0454 98.8489 99.0854C98.9164 99.128 98.9953 99.1489 99.075 99.1453C99.1599 99.1492 99.244 99.1272 99.316 99.0821C99.3409 99.0662 99.3617 99.0447 99.3768 99.0193C99.3918 98.9938 99.4006 98.9652 99.4025 98.9358C99.4027 98.9123 99.3979 98.8891 99.3884 98.8676C99.379 98.8461 99.3651 98.8268 99.3476 98.8111C99.2995 98.772 99.2424 98.7457 99.1814 98.7346L98.9137 98.6764C98.7887 98.6555 98.6729 98.5976 98.5812 98.5102C98.5462 98.4732 98.5189 98.4295 98.5009 98.3819C98.483 98.3342 98.4746 98.2834 98.4765 98.2325C98.475 98.1447 98.5025 98.0588 98.5546 97.9881C98.6102 97.9141 98.685 97.8567 98.7707 97.8219C98.8706 97.7818 98.9774 97.762 99.085 97.7637C99.2279 97.7558 99.3696 97.7943 99.489 97.8734C99.5896 97.9497 99.6598 98.0593 99.6868 98.1827Z" fill="black"/>
<path d="M2.18789 93.8567H0V83.1899H7.24696V84.9988H2.18789V87.702H6.94438V89.481H2.18789V93.8567Z" fill="#FF0000"/>
<path d="M11.8056 85.6206H12.1099C12.9452 85.6178 13.7793 85.684 14.6037 85.8184V87.2781H12.1398C11.9807 87.2665 11.8209 87.2881 11.6707 87.3417C11.5204 87.3952 11.3829 87.4794 11.267 87.589C11.0593 87.8249 10.9529 88.1331 10.9711 88.4469V93.8567H8.90454V88.3704C8.90454 86.5383 9.87158 85.6217 11.8056 85.6206Z" fill="#FF0000"/>
<path d="M17.4732 85.7419L19.5696 91.4543L21.6661 85.7402H23.7575L19.7159 96.7129H17.6062L18.7467 93.8567H18.366L15.3734 85.7419H17.4732Z" fill="#FF0000"/>
<path d="M34.7035 83.1899H36.8914V93.8567H34.5639L30.5239 86.7295V93.8567H28.3361V83.1899H30.6636L34.7052 90.3155L34.7035 83.1899Z" fill="#FF0000"/>
<path d="M46.1435 88.5383V90.5333H40.9331V91.0953C40.9331 91.5624 41.0395 91.8983 41.2523 92.1061C41.4651 92.3139 41.8043 92.4186 42.2698 92.4186H45.7794V93.7703C44.7588 93.9241 43.7274 93.9953 42.6954 93.9831H42.057C39.9289 93.9831 38.8655 93.0105 38.8666 91.0653V88.5383C38.8666 86.5931 39.93 85.6205 42.057 85.6205H42.9531C45.0811 85.6205 46.1446 86.5931 46.1435 88.5383ZM40.9331 88.402V89.067H44.0769V88.535C44.0769 87.6339 43.6569 87.1833 42.8167 87.1833H42.1783C41.3471 87.1855 40.932 87.5918 40.9331 88.402Z" fill="#FF0000"/>
<path d="M51.9174 92.3222H53.6497V93.7952C53.0297 93.9201 52.3985 93.9814 51.7661 93.9781H51.1742C50.3984 93.9781 49.7982 93.7625 49.3737 93.3314C48.9492 92.9002 48.7336 92.3001 48.727 91.5309V87.3995H47.3438V85.7369H48.727V83.6405H50.7935V85.7369H53.5583V87.3995H50.7935V91.1967C50.7935 91.9471 51.1681 92.3222 51.9174 92.3222Z" fill="#FF0000"/>
<path d="M61.8093 85.7419L63.3738 91.2133L64.9548 85.7419H67.0513L64.5143 93.8567H62.328L60.8318 88.5831L59.3272 93.8567H57.1293L54.5923 85.7419H56.6887L58.2681 91.2133L59.8342 85.7419H61.8093Z" fill="#FF0000"/>
<path d="M68.0389 91.0603V88.5383C68.0389 86.5931 69.0974 85.6205 71.2144 85.6205H72.5211C74.648 85.6205 75.7115 86.5931 75.7115 88.5383V91.0603C75.7115 93.0055 74.648 93.9781 72.5211 93.9781H71.2144C69.0985 93.9781 68.04 93.0055 68.0389 91.0603ZM73.645 91.0005V88.6148C73.645 88.1592 73.5386 87.8223 73.3258 87.6039C73.113 87.3856 72.7738 87.2748 72.3083 87.2714H71.4421C70.9766 87.2714 70.6375 87.3823 70.4247 87.6039C70.2119 87.8256 70.1055 88.1626 70.1055 88.6148V91.0005C70.1055 91.456 70.2091 91.7885 70.4164 91.998C70.6236 92.2075 70.9655 92.3139 71.4421 92.3172H72.3033C72.7688 92.3172 73.108 92.2108 73.3208 91.998C73.5336 91.7852 73.6417 91.4527 73.645 91.0005Z" fill="#FF0000"/>
<path d="M80.4364 85.6206H80.7406C81.5759 85.6178 82.41 85.684 83.2344 85.8184V87.2781H80.7706C80.6115 87.2665 80.4517 87.2881 80.3014 87.3417C80.1511 87.3952 80.0137 87.4794 79.8977 87.589C79.69 87.8249 79.5837 88.1331 79.6018 88.4469V93.8567H77.5353V88.3704C77.5353 86.5383 78.5023 85.6217 80.4364 85.6206Z" fill="#FF0000"/>
<path d="M86.7424 91.6539V93.8567H84.6759V82.884H86.7424V88.8858L89.311 85.7403H91.7416L88.8854 89.2316L92.1357 93.8517H89.7815L87.5787 90.6613L86.7424 91.6539Z" fill="#FF0000"/>
<path d="M95.9112 88.8276L97.7948 89.1468C98.4598 89.2576 98.9486 89.4954 99.2612 89.86C99.5737 90.2247 99.7283 90.7412 99.725 91.4095V91.6689C99.725 92.438 99.5172 93.0155 99.1016 93.4012C98.6859 93.7869 98.0021 93.9792 97.05 93.9781H96.0625C95.1719 93.985 94.2822 93.9188 93.4024 93.7803V92.3522H96.7907C97.3681 92.3522 97.6568 92.1305 97.6568 91.6871V91.3829C97.6568 90.9872 97.3875 90.7445 96.8522 90.653L94.9669 90.3338C94.2886 90.223 93.7976 89.988 93.4939 89.6289C93.1902 89.2698 93.0383 88.7556 93.0383 88.0861V87.9032C93.0383 87.1651 93.2456 86.6004 93.6601 86.2091C94.0746 85.8179 94.7585 85.6228 95.7117 85.6239H96.533C97.418 85.6175 98.3021 85.6836 99.1764 85.8217V87.2499H95.9494C95.7245 87.2353 95.5015 87.3 95.3193 87.4327C95.249 87.489 95.1926 87.5607 95.1546 87.6423C95.1165 87.7239 95.0978 87.8132 95.0999 87.9032V88.1011C95.0999 88.4945 95.3703 88.7367 95.9112 88.8276Z" fill="#FF0000"/>
<defs>
<linearGradient id="paint0_linear_919_3437" x1="25.9618" y1="30.728" x2="69.0103" y2="30.728" gradientUnits="userSpaceOnUse">
<stop stop-color="#FF0000"/>
<stop offset="0.11" stop-color="#F90000"/>
<stop offset="0.27" stop-color="#E80000"/>
<stop offset="0.44" stop-color="#CC0000"/>
<stop offset="0.63" stop-color="#A50000"/>
<stop offset="0.83" stop-color="#730001"/>
<stop offset="1" stop-color="#450001"/>
</linearGradient>
<linearGradient id="paint1_linear_919_3437" x1="42.9749" y1="53.7454" x2="69.2029" y2="12.0301" gradientUnits="userSpaceOnUse">
<stop stop-color="#FF0000"/>
<stop offset="0.11" stop-color="#F90000"/>
<stop offset="0.27" stop-color="#E80000"/>
<stop offset="0.44" stop-color="#CC0000"/>
<stop offset="0.63" stop-color="#A50000"/>
<stop offset="0.83" stop-color="#730001"/>
<stop offset="1" stop-color="#450001"/>
</linearGradient>
<linearGradient id="paint2_linear_919_3437" x1="37.4366" y1="32.7277" x2="65.7555" y2="32.7277" gradientUnits="userSpaceOnUse">
<stop/>
<stop offset="1" stop-color="white" stop-opacity="0.5"/>
</linearGradient>
<linearGradient id="paint3_linear_919_3437" x1="72.067" y1="55.3729" x2="58.2123" y2="37.9014" gradientUnits="userSpaceOnUse">
<stop stop-color="#EF0000"/>
<stop offset="1" stop-color="#5D0F28"/>
</linearGradient>
<linearGradient id="paint4_linear_919_3437" x1="59.2824" y1="57.7527" x2="58.7382" y2="37.2843" gradientUnits="userSpaceOnUse">
<stop stop-color="#FF0000"/>
<stop offset="1" stop-color="#5D0F28"/>
</linearGradient>
<linearGradient id="paint5_linear_919_3437" x1="59.1627" y1="48.1213" x2="69.669" y2="48.1213" gradientUnits="userSpaceOnUse">
<stop stop-color="white" stop-opacity="0.5"/>
<stop offset="1"/>
</linearGradient>
<linearGradient id="paint6_linear_919_3437" x1="61.0088" y1="53.8106" x2="51.0675" y2="45.2103" gradientUnits="userSpaceOnUse">
<stop stop-color="#FF0000"/>
<stop offset="1" stop-color="#5D0F28"/>
</linearGradient>
</defs>
</svg>
