<svg width="14" height="14" viewBox="0 0 14 14" fill="none" xmlns="http://www.w3.org/2000/svg">
<g clip-path="url(#clip0_280_3051)">
<path d="M8.73248 2.0415V1.1665M11.0833 2.9165L11.6666 2.33317M11.9583 5.26734H12.8333M11.0833 7.58317L11.6666 8.1665M5.83331 2.33317L6.41665 2.9165M9.13906 4.90392C8.20281 3.8965 1.16081 6.36575 1.16665 7.26817C1.17306 8.29017 3.91648 8.60517 4.67715 8.81867C5.13448 8.947 5.25698 9.07825 5.36256 9.55775C5.83973 11.7295 6.08006 12.8093 6.62606 12.8338C7.49698 12.8723 10.0526 5.88859 9.13906 4.9045" stroke="white" stroke-width="1.5" stroke-linecap="round" stroke-linejoin="round"/>
</g>
<defs>
<clipPath id="clip0_280_3051">
<rect width="14" height="14" fill="white" transform="matrix(-1 0 0 1 14 0)"/>
</clipPath>
</defs>
</svg>
