<svg width="24" height="24" viewBox="0 0 24 24" fill="none" xmlns="http://www.w3.org/2000/svg">
<path d="M7.119 8H16.881C17.0706 7.99994 17.2564 8.0538 17.4166 8.1553C17.5767 8.2568 17.7048 8.40175 17.7857 8.57325C17.8666 8.74474 17.8971 8.93571 17.8736 9.12388C17.8501 9.31205 17.7736 9.48966 17.653 9.636L12.772 15.563C12.6782 15.6769 12.5603 15.7687 12.4268 15.8317C12.2934 15.8947 12.1476 15.9274 12 15.9274C11.8524 15.9274 11.7066 15.8947 11.5732 15.8317C11.4397 15.7687 11.3218 15.6769 11.228 15.563L6.348 9.636C6.2275 9.48979 6.15102 9.31237 6.12746 9.12438C6.10389 8.93639 6.13421 8.74557 6.2149 8.57415C6.29558 8.40273 6.4233 8.25775 6.58318 8.1561C6.74307 8.05446 6.92954 8.00032 7.119 8Z" stroke="#FE0101" stroke-width="2" stroke-linecap="round" stroke-linejoin="round"/>
</svg>
