<svg width="40" height="41" viewBox="0 0 40 41" fill="none" xmlns="http://www.w3.org/2000/svg">
<rect y="0.5" width="40" height="40" rx="8" fill="white"/>
<path d="M29.0275 14.5267C27.3762 13.2466 25.3945 12.6067 23.3028 12.5L22.9725 12.82C24.844 13.2466 26.4954 14.1 28.0367 15.2733C26.1651 14.3133 24.0734 13.6733 21.8715 13.46C21.211 13.3533 20.6605 13.3533 20 13.3533C19.3395 13.3533 18.789 13.3533 18.1285 13.46C15.9266 13.6733 13.8348 14.3133 11.9633 15.2733C13.5045 14.1 15.156 13.2466 17.0275 12.82L16.6972 12.5C14.6055 12.6067 12.6238 13.2466 10.9725 14.5267C9.10092 17.94 8.11009 21.78 8 25.7266C9.65135 27.4333 11.9633 28.5 14.3853 28.5C14.3853 28.5 15.156 27.6467 15.7064 26.9C14.2752 26.58 12.9541 25.8333 12.0734 24.66C12.844 25.0866 13.6146 25.5133 14.3853 25.8333C15.3762 26.26 16.367 26.4733 17.3578 26.6867C18.2386 26.7933 19.1193 26.9 20 26.9C20.8807 26.9 21.7614 26.7933 22.6422 26.6867C23.633 26.4733 24.6238 26.26 25.6147 25.8333C26.3854 25.5133 27.156 25.0866 27.9266 24.66C27.0459 25.8333 25.7248 26.58 24.2936 26.9C24.844 27.6467 25.6147 28.5 25.6147 28.5C28.0367 28.5 30.3486 27.4333 32 25.7266C31.8899 21.78 30.8991 17.94 29.0275 14.5267ZM16.367 23.8066C15.2661 23.8066 14.2753 22.8466 14.2753 21.6733C14.2753 20.5 15.2661 19.54 16.367 19.54C17.4679 19.54 18.4587 20.5 18.4587 21.6733C18.4587 22.8466 17.4679 23.8066 16.367 23.8066ZM23.633 23.8066C22.5321 23.8066 21.5413 22.8466 21.5413 21.6733C21.5413 20.5 22.5321 19.54 23.633 19.54C24.7339 19.54 25.7248 20.5 25.7248 21.6733C25.7248 22.8466 24.7339 23.8066 23.633 23.8066Z" fill="url(#paint0_linear_346_5204)"/>
<defs>
<linearGradient id="paint0_linear_346_5204" x1="32.2268" y1="30" x2="6.33995" y2="21.8581" gradientUnits="userSpaceOnUse">
<stop stop-color="#FD0000"/>
<stop offset="1" stop-color="#FF9292"/>
</linearGradient>
</defs>
</svg>
