<svg width="40" height="41" viewBox="0 0 40 41" fill="none" xmlns="http://www.w3.org/2000/svg">
<rect y="0.5" width="40" height="40" rx="8" fill="white"/>
<path d="M20 12.3072C22.6506 12.3072 23.0121 12.3072 24.0964 12.3072C25.0602 12.3072 25.5422 12.5482 25.9036 12.6687C26.3855 12.9096 26.747 13.0301 27.1084 13.3916C27.4699 13.753 27.7108 14.1145 27.8313 14.5964C27.9518 14.9578 28.0723 15.4398 28.1928 16.4036C28.1928 17.488 28.1928 17.7289 28.1928 20.5C28.1928 23.2711 28.1928 23.5121 28.1928 24.5964C28.1928 25.5602 27.9518 26.0422 27.8313 26.4036C27.5904 26.8855 27.4699 27.247 27.1084 27.6084C26.747 27.9699 26.3855 28.2108 25.9036 28.3313C25.5422 28.4518 25.0602 28.5723 24.0964 28.6928C23.0121 28.6928 22.7711 28.6928 20 28.6928C17.2289 28.6928 16.988 28.6928 15.9036 28.6928C14.9398 28.6928 14.4578 28.4518 14.0964 28.3313C13.6145 28.0904 13.253 27.9699 12.8916 27.6084C12.5301 27.247 12.2892 26.8855 12.1687 26.4036C12.0482 26.0422 11.9277 25.5602 11.8072 24.5964C11.8072 23.5121 11.8072 23.2711 11.8072 20.5C11.8072 17.7289 11.8072 17.488 11.8072 16.4036C11.8072 15.4398 12.0482 14.9578 12.1687 14.5964C12.4096 14.1145 12.5301 13.753 12.8916 13.3916C13.253 13.0301 13.6145 12.7892 14.0964 12.6687C14.4578 12.5482 14.9398 12.4277 15.9036 12.3072C16.988 12.3072 17.3494 12.3072 20 12.3072ZM20 10.5C17.2289 10.5 16.988 10.5 15.9036 10.5C14.8193 10.5 14.0964 10.741 13.494 10.9819C12.8916 11.2229 12.2892 11.5843 11.6867 12.1867C11.0843 12.7892 10.8434 13.2711 10.4819 13.994C10.241 14.5964 10.1205 15.3193 10 16.4036C10 17.488 10 17.8494 10 20.5C10 23.2711 10 23.5121 10 24.5964C10 25.6807 10.241 26.4036 10.4819 27.006C10.7229 27.6084 11.0843 28.2108 11.6867 28.8133C12.2892 29.4157 12.7711 29.6566 13.494 30.0181C14.0964 30.259 14.8193 30.3795 15.9036 30.5C16.988 30.5 17.3494 30.5 20 30.5C22.6506 30.5 23.0121 30.5 24.0964 30.5C25.1807 30.5 25.9036 30.259 26.506 30.0181C27.1084 29.7771 27.7108 29.4157 28.3133 28.8133C28.9157 28.2108 29.1566 27.7289 29.5181 27.006C29.759 26.4036 29.8795 25.6807 30 24.5964C30 23.5121 30 23.1506 30 20.5C30 17.8494 30 17.488 30 16.4036C30 15.3193 29.759 14.5964 29.5181 13.994C29.2771 13.3916 28.9157 12.7892 28.3133 12.1867C27.7108 11.5843 27.2289 11.3434 26.506 10.9819C25.9036 10.741 25.1807 10.6205 24.0964 10.5C23.0121 10.5 22.7711 10.5 20 10.5Z" fill="url(#paint0_linear_346_5208)"/>
<path d="M20 15.3193C17.1084 15.3193 14.8193 17.6084 14.8193 20.5C14.8193 23.3916 17.1084 25.6807 20 25.6807C22.8916 25.6807 25.1807 23.3916 25.1807 20.5C25.1807 17.6084 22.8916 15.3193 20 15.3193ZM20 23.8735C18.1928 23.8735 16.6265 22.4277 16.6265 20.5C16.6265 18.6928 18.0723 17.1265 20 17.1265C21.8072 17.1265 23.3735 18.5723 23.3735 20.5C23.3735 22.3072 21.8072 23.8735 20 23.8735Z" fill="url(#paint1_linear_346_5208)"/>
<path d="M25.3012 16.4036C25.9666 16.4036 26.506 15.8642 26.506 15.1988C26.506 14.5334 25.9666 13.994 25.3012 13.994C24.6358 13.994 24.0964 14.5334 24.0964 15.1988C24.0964 15.8642 24.6358 16.4036 25.3012 16.4036Z" fill="url(#paint2_linear_346_5208)"/>
<defs>
<linearGradient id="paint0_linear_346_5208" x1="29.2268" y1="31" x2="5.65619" y2="25.2562" gradientUnits="userSpaceOnUse">
<stop stop-color="#FD0000"/>
<stop offset="1" stop-color="#FF9292"/>
</linearGradient>
<linearGradient id="paint1_linear_346_5208" x1="29.2268" y1="31" x2="5.65619" y2="25.2562" gradientUnits="userSpaceOnUse">
<stop stop-color="#FD0000"/>
<stop offset="1" stop-color="#FF9292"/>
</linearGradient>
<linearGradient id="paint2_linear_346_5208" x1="29.2268" y1="31" x2="5.65619" y2="25.2562" gradientUnits="userSpaceOnUse">
<stop stop-color="#FD0000"/>
<stop offset="1" stop-color="#FF9292"/>
</linearGradient>
</defs>
</svg>
