<svg width="33" height="33" viewBox="0 0 33 33" fill="none" xmlns="http://www.w3.org/2000/svg">
<path fill-rule="evenodd" clip-rule="evenodd" d="M28.3921 3.27879C27.4544 3.44687 26.174 3.87147 24.3074 4.49512L9.95478 9.2786C8.13472 9.88455 6.81445 10.3246 5.85244 10.7006C4.85284 11.0898 4.41497 11.3486 4.23141 11.5233C3.90899 11.8329 3.65246 12.2044 3.47722 12.6156C3.30198 13.0268 3.21165 13.4691 3.21165 13.9161C3.21165 14.3631 3.30198 14.8055 3.47722 15.2167C3.65246 15.6279 3.90899 15.9994 4.23141 16.309C4.41497 16.4859 4.85284 16.7424 5.85244 17.1317C7.23686 17.6465 8.63267 18.1302 10.0388 18.5824C10.6846 18.7969 11.1313 18.9451 11.536 19.1596C12.5163 19.6789 13.3176 20.481 13.836 21.4618C14.0527 21.8665 14.2009 22.3132 14.4154 22.959L14.4441 23.0452C15.0501 24.8631 15.4902 26.1856 15.8661 27.1453C16.2554 28.1449 16.5141 28.5828 16.691 28.7664C17.0006 29.0885 17.372 29.3447 17.783 29.5197C18.1939 29.6948 18.6361 29.785 19.0828 29.785C19.5295 29.785 19.9716 29.6948 20.3826 29.5197C20.7936 29.3447 21.165 29.0885 21.4745 28.7664C21.6514 28.5828 21.908 28.1449 22.2972 27.1453C22.6731 26.1856 23.1154 24.8631 23.7192 23.0452L28.5049 8.69034C29.1263 6.82383 29.5509 5.54116 29.7168 4.60569C29.8849 3.65917 29.719 3.44466 29.635 3.36283C29.5531 3.27879 29.3386 3.11072 28.3921 3.27879ZM28.0051 1.10488C29.1329 0.905848 30.3161 0.916906 31.2007 1.7993C32.0831 2.6839 32.0942 3.86705 31.8951 4.99492C31.6961 6.11173 31.2184 7.547 30.6346 9.30072L30.6014 9.38918L25.8179 23.7463L25.8068 23.7794C25.3552 25.1811 24.8722 26.5725 24.3583 27.9525C23.9713 28.9389 23.5843 29.766 23.069 30.3012C22.5531 30.8383 21.9339 31.2657 21.2487 31.5576C20.5636 31.8495 19.8264 32 19.0817 32C18.3369 32 17.5998 31.8495 16.9146 31.5576C16.2294 31.2657 15.6103 30.8383 15.0943 30.3012C14.5812 29.7638 14.192 28.9389 13.805 27.9525C13.4069 26.933 12.9492 25.5575 12.3565 23.7794L12.3454 23.7463C12.0911 22.9833 12.0004 22.7223 11.881 22.499C11.5701 21.9102 11.0893 21.4286 10.501 21.1168C10.2799 20.9996 10.0167 20.9089 9.25374 20.6524L9.22056 20.6435C7.81921 20.1909 6.42785 19.708 5.04746 19.195C4.06113 18.808 3.23402 18.421 2.69884 17.9057C2.1617 17.3897 1.73434 16.7706 1.44241 16.0854C1.15048 15.4002 1 14.6631 1 13.9183C1 13.1736 1.15048 12.4364 1.44241 11.7513C1.73434 11.0661 2.1617 10.4469 2.69884 9.931C3.23623 9.41572 4.06113 9.0287 5.04746 8.64169C6.06696 8.24362 7.44252 7.78584 9.22056 7.19315L9.25374 7.1821L23.6086 2.39861L23.6993 2.36765C25.453 1.78382 26.8883 1.30613 28.0051 1.1071" fill="white"/>
</svg>
