<svg width="40" height="41" viewBox="0 0 40 41" fill="none" xmlns="http://www.w3.org/2000/svg">
<g clip-path="url(#clip0_2519_3323)">
<rect y="0.5" width="40" height="40" fill="white"/>
<path d="M33.9995 20.1737C33.9392 18.6096 32.5684 17.3881 30.931 17.4412C30.2053 17.4654 29.5151 17.7502 28.9913 18.228C26.6835 16.7217 23.9726 15.8961 21.186 15.8382L22.5009 9.7793L26.8394 10.6533C26.9601 11.7202 27.9579 12.4928 29.0714 12.3767C30.185 12.261 30.9913 11.305 30.8701 10.2381C30.749 9.17116 29.7516 8.39858 28.6381 8.51468C27.998 8.57727 27.4236 8.93464 27.1065 9.46595L22.1383 8.51468C21.8009 8.44217 21.4631 8.64503 21.3874 8.97348C21.3874 8.97823 21.3874 8.97823 21.3874 8.98298L19.8909 15.7225C17.0692 15.7661 14.3232 16.5966 11.9853 18.1124C10.796 17.0407 8.92163 17.0938 7.80313 18.238C6.68462 19.3774 6.74003 21.1733 7.93421 22.245C8.1662 22.4526 8.43288 22.6313 8.73019 22.7569C8.70992 23.0418 8.70992 23.3266 8.73019 23.6115C8.73019 27.9612 14.0209 31.5 20.5459 31.5C27.0709 31.5 32.3616 27.966 32.3616 23.6115C32.3819 23.3266 32.3819 23.0418 32.3616 22.7569C33.3797 22.2692 34.0198 21.2648 33.9995 20.1737ZM13.7286 22.1194C13.7286 21.0477 14.6408 20.1737 15.7593 20.1737C16.8778 20.1737 17.79 21.0477 17.79 22.1194C17.79 23.1911 16.8778 24.0651 15.7593 24.0651C14.6358 24.0552 13.7286 23.1911 13.7286 22.1194ZM25.5042 27.5361V27.4589C24.0632 28.4969 22.2996 29.0277 20.4955 28.9557C18.6913 29.0282 16.9282 28.4969 15.4867 27.4589C15.2953 27.2366 15.3304 26.9038 15.5624 26.7204C15.7638 26.5611 16.0512 26.5611 16.2579 26.7204C17.4773 27.575 18.9639 28.0096 20.4752 27.9418C21.987 28.0191 23.4784 27.6039 24.7127 26.7592C24.9344 26.5516 25.297 26.5564 25.5141 26.7687C25.7308 26.9811 25.7258 27.3285 25.5042 27.5361ZM25.2272 24.205C25.192 24.205 25.1618 24.205 25.1263 24.205L25.1416 24.1324C24.0231 24.1324 23.1109 23.2584 23.1109 22.1868C23.1109 21.1151 24.0231 20.2411 25.1416 20.2411C26.2601 20.2411 27.1723 21.1151 27.1723 22.1868C27.2173 23.2589 26.3457 24.1614 25.2272 24.205Z" fill="url(#paint0_linear_2519_3323)"/>
</g>
<defs>
<linearGradient id="paint0_linear_2519_3323" x1="32.9335" y1="32.6023" x2="19.8551" y2="2.05307" gradientUnits="userSpaceOnUse">
<stop stop-color="#FD0000"/>
<stop offset="1" stop-color="#FF9292"/>
</linearGradient>
<clipPath id="clip0_2519_3323">
<rect y="0.5" width="40" height="40" rx="8" fill="white"/>
</clipPath>
</defs>
</svg>
