    <svg width="40" height="41" viewBox="0 0 40 41" fill="none" xmlns="http://www.w3.org/2000/svg">
    <rect y="0.5" width="40" height="40" rx="8" fill="white"/>
    <path d="M28 13.1022L24.9946 28.7923C24.9946 28.7923 24.5741 29.8801 23.4189 29.3584L16.4846 23.8526L16.4524 23.8364C17.3891 22.9654 24.6524 16.2027 24.9698 15.8961C25.4613 15.4214 25.1562 15.1387 24.5856 15.4974L13.8568 22.553L9.71764 21.1108C9.71764 21.1108 9.06626 20.8708 9.00359 20.3491C8.9401 19.8265 9.73908 19.5439 9.73908 19.5439L26.6131 12.6889C26.6131 12.6889 28 12.0579 28 13.1022Z" fill="url(#paint0_linear_346_5200)"/>
    <defs>
    <linearGradient id="paint0_linear_346_5200" x1="25.7268" y1="29" x2="6.05716" y2="18.725" gradientUnits="userSpaceOnUse">
    <stop stop-color="#FD0000"/>
    <stop offset="1" stop-color="#FF9292"/>
    </linearGradient>
    </defs>
    </svg>
