<svg width="40" height="41" viewBox="0 0 40 41" fill="none" xmlns="http://www.w3.org/2000/svg">
<g clip-path="url(#clip0_346_5212)">
<rect y="0.5" width="40" height="40" fill="white"/>
<path d="M29.9764 14.7535C29.2865 14.7535 28.6033 14.6176 27.966 14.3536C27.3286 14.0896 26.7494 13.7027 26.2616 13.2148C25.7737 12.727 25.3868 12.1478 25.1227 11.5104C24.8587 10.8731 24.7228 10.1899 24.7228 9.5H20.9695V24.1974C20.9688 24.8675 20.7572 25.5203 20.3647 26.0635C19.9722 26.6066 19.4188 27.0124 18.7827 27.2234C18.1467 27.4344 17.4605 27.4398 16.8212 27.239C16.1819 27.0382 15.6221 26.6412 15.221 26.1044C14.8199 25.5676 14.5979 24.9182 14.5865 24.2482C14.5751 23.5782 14.7749 22.9217 15.1575 22.3715C15.5401 21.8214 16.0862 21.4057 16.7183 21.1833C17.3504 20.9608 18.0364 20.943 18.6792 21.1322V17.4837C17.3132 17.2995 15.9234 17.5364 14.6955 18.1629C13.4677 18.7893 12.4601 19.7755 11.8074 20.9896C11.1548 22.2037 10.888 23.5881 11.0429 24.9578C11.1977 26.3275 11.7667 27.6174 12.6739 28.6552C13.5811 29.6931 14.7834 30.4294 16.1201 30.766C17.4568 31.1025 18.8644 31.0233 20.1549 30.5388C21.4454 30.0543 22.5574 29.1877 23.3423 28.0546C24.1273 26.9215 24.5479 25.5758 24.548 24.1974L24.6569 16.7683C26.1991 17.9004 28.0629 18.5095 29.976 18.5067L29.9764 14.7535Z" fill="url(#paint0_linear_346_5212)"/>
</g>
<defs>
<linearGradient id="paint0_linear_346_5212" x1="29.2268" y1="32" x2="14.7268" y2="6.5" gradientUnits="userSpaceOnUse">
<stop stop-color="#FD0000"/>
<stop offset="1" stop-color="#FF9292"/>
</linearGradient>
<clipPath id="clip0_346_5212">
<rect y="0.5" width="40" height="40" rx="8" fill="white"/>
</clipPath>
</defs>
</svg>
