<svg width="500" height="500" viewBox="0 0 500 500" fill="none" xmlns="http://www.w3.org/2000/svg">
<path d="M482.645 198.83C479.515 198.768 476.423 199.52 473.671 201.013C470.92 202.506 468.603 204.688 466.949 207.345C465.294 210.003 464.359 213.044 464.234 216.172C464.109 219.3 464.798 222.407 466.235 225.188L387.11 303.517C394.538 285.817 398.351 266.811 398.324 247.616C398.324 246.167 398.324 244.731 398.246 243.295L387.084 254.339C385.495 286.387 372.422 316.791 350.256 339.992L344.434 345.749C335.531 354.019 325.549 361.045 314.76 366.636L295.505 386.427C299.656 385.157 303.72 383.712 307.698 382.093L307.985 381.976C324.474 375.219 339.578 365.483 352.541 353.255L352.645 353.164C354.386 351.545 356.066 349.883 357.685 348.177L357.776 348.086L474.029 233.021C476.478 234.283 479.185 234.962 481.94 235.005C486.674 235 491.217 233.138 494.593 229.819C497.97 226.501 499.91 221.99 499.997 217.257C500.084 212.524 498.311 207.945 495.06 204.505C491.808 201.064 487.336 199.036 482.606 198.856L482.645 198.83ZM482.175 223.921C480.786 223.895 479.436 223.458 478.296 222.665C477.156 221.872 476.276 220.758 475.769 219.465C475.261 218.172 475.149 216.758 475.445 215.401C475.741 214.044 476.433 212.805 477.434 211.841C478.434 210.878 479.697 210.232 481.064 209.987C482.432 209.741 483.841 209.906 485.114 210.461C486.387 211.016 487.467 211.937 488.218 213.106C488.968 214.275 489.355 215.64 489.329 217.029C489.291 218.89 488.517 220.661 487.176 221.953C485.835 223.245 484.037 223.953 482.175 223.921Z" fill="black"/>
<path d="M381.823 209.862L390.661 201.115C384.455 182.909 374.706 166.112 361.977 151.692C349.248 137.272 333.791 125.513 316.497 117.094L336.928 96.2068C340.786 98.089 345.189 98.532 349.344 97.4559C353.499 96.3798 357.134 93.8554 359.593 90.3372C362.053 86.8191 363.175 82.5385 362.758 78.2663C362.341 73.9941 360.413 70.0111 357.32 67.0347C354.227 64.0582 350.173 62.2839 345.888 62.0313C341.603 61.7786 337.369 63.0642 333.947 65.6566C330.526 68.249 328.143 71.9777 327.227 76.1714C326.311 80.365 326.922 84.7478 328.951 88.5306L305.662 112.356C292.928 107.392 279.551 104.271 265.936 103.087L255.675 113.622C269.817 113.867 283.831 116.361 297.189 121.011L269.526 149.235H284.996L308.312 125.384C325.907 133.368 341.579 145.045 354.263 159.621C366.947 174.197 376.347 191.332 381.823 209.862ZM344.891 72.8779C346.28 72.8779 347.638 73.2898 348.793 74.0615C349.948 74.8333 350.848 75.9302 351.38 77.2136C351.912 78.497 352.051 79.9091 351.78 81.2716C351.509 82.634 350.84 83.8855 349.857 84.8677C348.875 85.85 347.624 86.5189 346.261 86.7899C344.899 87.0609 343.487 86.9218 342.203 86.3902C340.92 85.8586 339.823 84.9584 339.051 83.8034C338.28 82.6484 337.868 81.2905 337.868 79.9014C337.868 78.0386 338.608 76.2522 339.925 74.935C341.242 73.6178 343.028 72.8779 344.891 72.8779Z" fill="black"/>
<path d="M157.02 154.261L157.477 153.805L160.571 150.75C170.04 141.704 180.774 134.083 192.437 128.126L211.563 108.57C189.441 115.209 169.234 127.054 152.633 143.113L150.022 145.658L26.3804 268.021C22.5409 266.049 18.1231 265.513 13.9235 266.51C9.72381 267.507 6.01855 269.972 3.47567 273.46C0.932777 276.948 -0.280444 281.23 0.0546815 285.533C0.389807 289.836 2.25121 293.879 5.30341 296.931C8.3556 299.983 12.3977 301.844 16.7012 302.179C21.0046 302.515 25.2862 301.301 28.7741 298.758C32.262 296.216 34.7268 292.51 35.7241 288.311C36.7214 284.111 36.1856 279.693 34.2133 275.854L119.317 191.585C111.87 209.321 108.044 228.367 108.064 247.603C108.064 248.909 108.064 250.214 108.064 251.52L119.252 240.436C120.983 208.084 134.404 177.461 157.02 154.261ZM17.9731 291.128C16.5838 291.102 15.2335 290.664 14.093 289.87C12.9525 289.077 12.073 287.962 11.566 286.669C11.0589 285.375 10.947 283.96 11.2444 282.602C11.5418 281.245 12.2352 280.006 13.2368 279.043C14.2383 278.08 15.5031 277.436 16.871 277.191C18.2389 276.947 19.6486 277.114 20.9215 277.672C22.1944 278.229 23.2735 279.151 24.0221 280.322C24.7708 281.492 25.1553 282.859 25.1272 284.248C25.1102 285.17 24.9116 286.079 24.5427 286.924C24.1738 287.769 23.6418 288.533 22.9773 289.172C22.3128 289.811 21.5287 290.313 20.67 290.648C19.8113 290.984 18.8949 291.147 17.9731 291.128Z" fill="black"/>
<path d="M208.169 373.882L230.949 350.501L223.025 342.785L197.124 369.365C179.784 361.341 164.35 349.721 151.844 335.275C139.339 320.83 130.049 303.89 124.592 285.579L115.767 294.313C128.219 330.698 154.535 360.693 188.991 377.772L163.756 403.673C159.883 401.774 155.458 401.321 151.28 402.397C147.102 403.472 143.446 406.005 140.971 409.539C138.496 413.073 137.365 417.374 137.782 421.668C138.199 425.962 140.136 429.966 143.245 432.957C146.354 435.948 150.429 437.731 154.735 437.982C159.042 438.234 163.297 436.939 166.733 434.33C170.169 431.721 172.56 427.97 173.474 423.754C174.388 419.538 173.766 415.134 171.72 411.336L199.748 382.616C212.826 387.805 226.592 391.055 240.61 392.263L250.871 381.728C236.303 381.466 221.878 378.816 208.169 373.882ZM155.806 426.884C154.417 426.884 153.059 426.472 151.904 425.701C150.749 424.929 149.849 423.832 149.317 422.549C148.785 421.265 148.646 419.853 148.917 418.491C149.188 417.128 149.857 415.877 150.84 414.895C151.822 413.912 153.073 413.243 154.436 412.972C155.798 412.701 157.21 412.84 158.494 413.372C159.777 413.904 160.874 414.804 161.646 415.959C162.417 417.114 162.829 418.472 162.829 419.861C162.826 421.722 162.085 423.507 160.768 424.823C159.452 426.14 157.668 426.881 155.806 426.884Z" fill="black"/>
<path d="M127.229 266.833L187.124 311.454L242.894 352.981L243.665 353.556H244.513L245.27 351.859L291.967 247.225L292.202 246.715L292.711 245.567L349.944 117.264L127.229 266.833ZM291.406 244.3L243.599 351.35L188.221 310.096L130.166 266.859L346.027 121.99L291.406 244.3Z" fill="#350003"/>
<path d="M346 121.99L345.987 122.029L188.22 310.136L130.166 266.898L346 121.99Z" fill="url(#paint0_linear_498_3851)"/>
<path d="M345.987 122.029L291.405 244.3L243.599 351.388L188.22 310.135L345.987 122.029Z" fill="url(#paint1_linear_498_3851)"/>
<path style="mix-blend-mode:screen" d="M329.683 141.35C323.913 148.543 318.064 155.71 312.255 162.799L294.683 184.131C282.934 198.347 271.184 212.46 259.344 226.624C247.503 240.788 235.623 254.835 223.691 268.869L205.767 289.901C199.735 296.872 193.756 303.882 187.699 310.788C193.469 303.608 199.318 296.493 205.127 289.339L222.686 268.008C234.435 253.791 246.25 239.679 258.038 225.514C269.827 211.35 281.746 197.303 293.691 183.269L311.615 162.238C317.633 155.293 323.612 148.295 329.683 141.35Z" fill="url(#paint2_linear_498_3851)"/>
<path d="M292.698 245.567L291.392 244.261L243.585 351.31L242.867 352.903L243.638 353.477H350.073L374.525 325.671L292.698 245.567ZM349.303 351.859H245.243L291.953 247.225L293.05 248.295L372.136 325.827L349.303 351.859Z" fill="#4C0D27"/>
<path d="M372.188 325.827L349.29 351.859H349.225L293.05 248.295L372.188 325.827Z" fill="url(#paint3_linear_498_3851)"/>
<path d="M349.225 351.859H245.257L291.954 247.225L293.05 248.295L349.225 351.859Z" fill="url(#paint4_linear_498_3851)"/>
<path style="mix-blend-mode:screen" d="M296.627 254.679C300.892 261.885 305.065 269.148 309.147 276.467C313.229 283.787 317.254 291.123 321.222 298.478C325.139 305.854 329.134 313.23 332.972 320.671C336.81 328.112 345.57 344.339 349.264 351.859C344.995 344.652 335.883 328.608 331.797 321.297C327.711 313.987 323.69 306.65 319.708 299.287C315.726 291.924 311.797 284.522 307.959 277.094C304.121 269.666 300.335 262.198 296.627 254.679Z" fill="url(#paint5_linear_498_3851)"/>
<path d="M291.954 247.225L247.842 351.859H245.257L291.954 247.225Z" fill="url(#paint6_linear_498_3851)"/>
<defs>
<linearGradient id="paint0_linear_498_3851" x1="130.166" y1="216.063" x2="346" y2="216.063" gradientUnits="userSpaceOnUse">
<stop stop-color="#FF0000"/>
<stop offset="0.11" stop-color="#F90000"/>
<stop offset="0.27" stop-color="#E80000"/>
<stop offset="0.44" stop-color="#CC0000"/>
<stop offset="0.63" stop-color="#A50000"/>
<stop offset="0.83" stop-color="#730001"/>
<stop offset="1" stop-color="#450001"/>
</linearGradient>
<linearGradient id="paint1_linear_498_3851" x1="215.466" y1="331.467" x2="346.967" y2="122.316" gradientUnits="userSpaceOnUse">
<stop stop-color="#FF0000"/>
<stop offset="0.11" stop-color="#F90000"/>
<stop offset="0.27" stop-color="#E80000"/>
<stop offset="0.44" stop-color="#CC0000"/>
<stop offset="0.63" stop-color="#A50000"/>
<stop offset="0.83" stop-color="#730001"/>
<stop offset="1" stop-color="#450001"/>
</linearGradient>
<linearGradient id="paint2_linear_498_3851" x1="187.699" y1="226.089" x2="329.683" y2="226.089" gradientUnits="userSpaceOnUse">
<stop/>
<stop offset="1" stop-color="white" stop-opacity="0.5"/>
</linearGradient>
<linearGradient id="paint3_linear_498_3851" x1="361.327" y1="339.626" x2="291.862" y2="252.029" gradientUnits="userSpaceOnUse">
<stop stop-color="#EF0000"/>
<stop offset="1" stop-color="#5D0F28"/>
</linearGradient>
<linearGradient id="paint4_linear_498_3851" x1="297.228" y1="351.558" x2="294.499" y2="248.935" gradientUnits="userSpaceOnUse">
<stop stop-color="#FF0000"/>
<stop offset="1" stop-color="#5D0F28"/>
</linearGradient>
<linearGradient id="paint5_linear_498_3851" x1="296.627" y1="303.269" x2="349.303" y2="303.269" gradientUnits="userSpaceOnUse">
<stop stop-color="white" stop-opacity="0.5"/>
<stop offset="1"/>
</linearGradient>
<linearGradient id="paint6_linear_498_3851" x1="305.883" y1="331.793" x2="256.04" y2="288.673" gradientUnits="userSpaceOnUse">
<stop stop-color="#FF0000"/>
<stop offset="1" stop-color="#5D0F28"/>
</linearGradient>
</defs>
</svg>
